<svg width="800" height="420" xmlns="http://www.w3.org/2000/svg" version="1.1"><g transform="translate(0, 10)"><g class="links" fill="none" stroke-opacity="0.6"><path d="M6,185.71726052753354C82.4,185.71726052753354,82.4,174.18556223970387,158.8,174.18556223970387" style="stroke: rgb(105, 181, 191);" stroke-width="20.962517353077278"></path><path d="M6,163.5747339194817C82.4,163.5747339194817,82.4,26.38361869504868,158.8,26.38361869504868" style="stroke: rgb(105, 181, 191);" stroke-width="1.943544655252198"></path><path d="M6,167.6006478482184C82.4,167.6006478482184,82.4,66.7908375751968,158.8,66.7908375751968" style="stroke: rgb(105, 181, 191);" stroke-width="4.164738546968996"></path><path d="M6,172.59833410458123C82.4,172.59833410458123,82.4,116.49930587690888,158.8,116.49930587690888" style="stroke: rgb(105, 181, 191);" stroke-width="5.275335492827395"></path><path d="M6,169.8218417399352C82.4,169.8218417399352,82.4,92.47801943544664,158.8,92.47801943544664" style="stroke: rgb(105, 181, 191);" stroke-width="0.2776492364645997"></path><path d="M6,200.01619620546046C82.4,200.01619620546046,82.4,273.5932438685794,158.8,273.5932438685794" style="stroke: rgb(105, 181, 191);" stroke-width="6.802406293382693"></path><path d="M6,204.94447015270708C82.4,204.94447015270708,82.4,342.24664507172605,158.8,342.24664507172605" style="stroke: rgb(105, 181, 191);" stroke-width="3.054141601110597"></path><path d="M6,162.0476631189264C82.4,162.0476631189264,82.4,8.05414160111074,158.8,8.05414160111074" style="stroke: rgb(105, 181, 191);" stroke-width="1.1105969458583989"></path><path d="M6,165.03239241092086C82.4,165.03239241092086,82.4,43.53308653401217,158.8,43.53308653401217" style="stroke: rgb(105, 181, 191);" stroke-width="0.971772327626099"></path><path d="M6,196.40675613142065C82.4,196.40675613142065,82.4,227.08236927348443,158.8,227.08236927348443" style="stroke: rgb(105, 181, 191);" stroke-width="0.41647385469689957"></path><path d="M6,57.771864877371605C82.4,57.771864877371605,82.4,154.40305414160113,158.8,154.40305414160113" style="stroke: rgb(208, 187, 255);" stroke-width="1.943544655252198"></path><path d="M6,62.14484035168905C82.4,62.14484035168905,82.4,330.654789449329,158.8,330.654789449329" style="stroke: rgb(208, 187, 255);" stroke-width="2.9153169828782968"></path><path d="M6,59.784821841739955C82.4,59.784821841739955,82.4,252.7695511337344,158.8,252.7695511337344" style="stroke: rgb(208, 187, 255);" stroke-width="1.8047200370198981"></path><path d="M6,55.134197130957915C82.4,55.134197130957915,82.4,56.65664044423892,158.8,56.65664044423892" style="stroke: rgb(208, 187, 255);" stroke-width="1.1105969458583989"></path><path d="M6,54.16242480333181C82.4,54.16242480333181,82.4,21.802406293382788,158.8,21.802406293382788" style="stroke: rgb(208, 187, 255);" stroke-width="0.5552984729291994"></path><path d="M6,53.815363257751066C82.4,53.815363257751066,82.4,5.763535400277791,158.8,5.763535400277791" style="stroke: rgb(208, 187, 255);" stroke-width="0.13882461823229986"></path><path d="M6,56.31420638593246C82.4,56.31420638593246,82.4,105.46274872744102,158.8,105.46274872744102" style="stroke: rgb(208, 187, 255);" stroke-width="0.971772327626099"></path><path d="M6,54.50948634891257C82.4,54.50948634891257,82.4,39.92364645997238,158.8,39.92364645997238" style="stroke: rgb(208, 187, 255);" stroke-width="0.13882461823229986"></path><path d="M6,58.81304951411386C82.4,58.81304951411386,82.4,225.83294770939375,158.8,225.83294770939375" style="stroke: rgb(208, 187, 255);" stroke-width="0.13882461823229986"></path><path d="M6,55.75890791300326C82.4,55.75890791300326,82.4,92.26978250809817,158.8,92.26978250809817" style="stroke: rgb(208, 187, 255);" stroke-width="0.13882461823229986"></path><path d="M6,247.63766774641368C82.4,247.63766774641368,82.4,130.1735307727904,158.8,130.1735307727904" style="stroke: rgb(255, 159, 155);" stroke-width="22.07311429893568"></path><path d="M6,274.15316982878295C82.4,274.15316982878295,82.4,200.14576584914397,158.8,200.14576584914397" style="stroke: rgb(255, 159, 155);" stroke-width="30.95788986580287"></path><path d="M6,369.38685793614064C82.4,369.38685793614064,82.4,369.38685793614064,158.8,369.38685793614064" style="stroke: rgb(255, 159, 155);" stroke-width="51.22628412771865"></path><path d="M6,217.23507635354002C82.4,217.23507635354002,82.4,9.372975474317586,158.8,9.372975474317586" style="stroke: rgb(255, 159, 155);" stroke-width="1.5270708005552984"></path><path d="M6,221.12216566404442C82.4,221.12216566404442,82.4,44.64368347987057,158.8,44.64368347987057" style="stroke: rgb(255, 159, 155);" stroke-width="1.2494215640906987"></path><path d="M6,228.41045812124017C82.4,228.41045812124017,82.4,75.53678852383169,158.8,75.53678852383169" style="stroke: rgb(255, 159, 155);" stroke-width="13.327163350300786"></path><path d="M6,323.1582600647848C82.4,323.1582600647848,82.4,297.6099028227673,158.8,297.6099028227673" style="stroke: rgb(255, 159, 155);" stroke-width="41.230911614993055"></path><path d="M6,235.8375751966682C82.4,235.8375751966682,82.4,93.38037945395658,158.8,93.38037945395658" style="stroke: rgb(255, 159, 155);" stroke-width="1.5270708005552984"></path><path d="M6,296.08745950948634C82.4,296.08745950948634,82.4,233.74595094863483,158.8,233.74595094863483" style="stroke: rgb(255, 159, 155);" stroke-width="12.910689495603886"></path><path d="M6,219.24803331790838C82.4,219.24803331790838,82.4,28.604812586765476,158.8,28.604812586765476" style="stroke: rgb(255, 159, 155);" stroke-width="2.4988431281813974"></path><path d="M6,18.817677001388297C82.4,18.817677001388297,82.4,250.4095326237853,158.8,250.4095326237853" style="stroke: rgb(255, 254, 163);" stroke-width="0.41647385469689957"></path><path d="M6,17.9847292919945C82.4,17.9847292919945,82.4,104.49097639981491,158.8,104.49097639981491" style="stroke: rgb(255, 254, 163);" stroke-width="0.13882461823229986"></path><path d="M6,17.012956964368403C82.4,17.012956964368403,82.4,5.208236927348592,158.8,5.208236927348592" style="stroke: rgb(255, 254, 163);" stroke-width="0.13882461823229986"></path><path d="M6,19.164738546969048C82.4,19.164738546969048,82.4,328.36418324849603,158.8,328.36418324849603" style="stroke: rgb(255, 254, 163);" stroke-width="0.2776492364645997"></path><path d="M6,18.33179083757525C82.4,18.33179083757525,82.4,151.76538639518745,158.8,151.76538639518745" style="stroke: rgb(255, 254, 163);" stroke-width="0.5552984729291994"></path><path d="M6,17.637667746413754C82.4,17.637667746413754,82.4,55.82369273484511,158.8,55.82369273484511" style="stroke: rgb(255, 254, 163);" stroke-width="0.5552984729291994"></path><path d="M6,17.22119389171685C82.4,17.22119389171685,82.4,21.247107820453586,158.8,21.247107820453586" style="stroke: rgb(255, 254, 163);" stroke-width="0.2776492364645997"></path><path d="M6,79.36372049976862C82.4,79.36372049976862,82.4,157.11013419713098,158.8,157.11013419713098" style="stroke: rgb(222, 187, 155);" stroke-width="3.470615455807496"></path><path d="M6,77.07311429893566C82.4,77.07311429893566,82.4,106.50393336418327,158.8,106.50393336418327" style="stroke: rgb(222, 187, 155);" stroke-width="1.1105969458583989"></path><path d="M6,82.62609902822766C82.4,82.62609902822766,82.4,254.9213327163351,158.8,254.9213327163351" style="stroke: rgb(222, 187, 155);" stroke-width="2.4988431281813974"></path><path d="M6,73.81073577047661C82.4,73.81073577047661,82.4,6.041184636742391,158.8,6.041184636742391" style="stroke: rgb(222, 187, 155);" stroke-width="0.41647385469689957"></path><path d="M6,75.96251735307726C82.4,75.96251735307726,82.4,57.767237390097314,158.8,57.767237390097314" style="stroke: rgb(222, 187, 155);" stroke-width="1.1105969458583989"></path><path d="M6,85.4720037019898C82.4,85.4720037019898,82.4,333.7089310504396,158.8,333.7089310504396" style="stroke: rgb(222, 187, 155);" stroke-width="3.192966219342897"></path><path d="M6,75.26839426191577C82.4,75.26839426191577,82.4,40.131883387320826,158.8,40.131883387320826" style="stroke: rgb(222, 187, 155);" stroke-width="0.2776492364645997"></path><path d="M6,81.23785284590467C82.4,81.23785284590467,82.4,226.04118463674217,158.8,226.04118463674217" style="stroke: rgb(222, 187, 155);" stroke-width="0.2776492364645997"></path><path d="M6,74.57427117075426C82.4,74.57427117075426,82.4,22.635354002776584,158.8,22.635354002776584" style="stroke: rgb(222, 187, 155);" stroke-width="1.1105969458583989"></path><path d="M6,6.804720037019897C82.4,6.804720037019897,82.4,151.34891254049052,158.8,151.34891254049052" style="stroke: rgb(141, 229, 161);" stroke-width="0.2776492364645997"></path><path d="M6,5.06941230911615C82.4,5.06941230911615,82.4,5.069412309116292,158.8,5.069412309116292" style="stroke: rgb(141, 229, 161);" stroke-width="0.13882461823229986"></path><path d="M6,5.624710782045349C82.4,5.624710782045349,82.4,20.622397038408238,158.8,20.622397038408238" style="stroke: rgb(141, 229, 161);" stroke-width="0.971772327626099"></path><path d="M6,6.2494215640906985C82.4,6.2494215640906985,82.4,55.407218880148214,158.8,55.407218880148214" style="stroke: rgb(141, 229, 161);" stroke-width="0.2776492364645997"></path><path d="M6,6.527070800555298C82.4,6.527070800555298,82.4,104.28273947246647,158.8,104.28273947246647" style="stroke: rgb(141, 229, 161);" stroke-width="0.2776492364645997"></path><path d="M6,127.19805645534473C82.4,127.19805645534473,82.4,62.070800555298604,158.8,62.070800555298604" style="stroke: rgb(161, 201, 244);" stroke-width="5.275335492827395"></path><path d="M6,123.24155483572417C82.4,123.24155483572417,82.4,41.72836649699227,158.8,41.72836649699227" style="stroke: rgb(161, 201, 244);" stroke-width="2.6376677464136975"></path><path d="M6,150.86765386395183C82.4,150.86765386395183,82.4,340.0948634891254,158.8,340.0948634891254" style="stroke: rgb(161, 201, 244);" stroke-width="1.2494215640906987"></path><path d="M6,133.1675150393336C82.4,133.1675150393336,82.4,110.52984729291998,158.8,110.52984729291998" style="stroke: rgb(161, 201, 244);" stroke-width="6.663581675150393"></path><path d="M6,144.96760758907908C82.4,144.96760758907908,82.4,264.91670522906065,158.8,264.91670522906065" style="stroke: rgb(161, 201, 244);" stroke-width="10.55067098565479"></path><path d="M6,120.81212401665894C82.4,120.81212401665894,82.4,24.30124942156418,158.8,24.30124942156418" style="stroke: rgb(161, 201, 244);" stroke-width="2.2211938917167977"></path><path d="M6,119.35446552521978C82.4,119.35446552521978,82.4,7.1517815826007896,158.8,7.1517815826007896" style="stroke: rgb(161, 201, 244);" stroke-width="0.6941230911614993"></path><path d="M6,137.81813975011565C82.4,137.81813975011565,82.4,162.38546968995837,158.8,162.38546968995837" style="stroke: rgb(161, 201, 244);" stroke-width="2.6376677464136975"></path><path d="M6,139.4146228597871C82.4,139.4146228597871,82.4,226.5964831096714,158.8,226.5964831096714" style="stroke: rgb(161, 201, 244);" stroke-width="0.5552984729291994"></path><path d="M6,42.70476631189267C82.4,42.70476631189267,82.4,153.22304488662658,158.8,153.22304488662658" style="stroke: rgb(185, 242, 240);" stroke-width="0.41647385469689957"></path><path d="M6,43.46830171217031C82.4,43.46830171217031,82.4,328.9194817214252,158.8,328.9194817214252" style="stroke: rgb(185, 242, 240);" stroke-width="0.5552984729291994"></path><path d="M6,42.35770476631192C82.4,42.35770476631192,82.4,104.83803794539568,158.8,104.83803794539568" style="stroke: rgb(185, 242, 240);" stroke-width="0.2776492364645997"></path><path d="M6,43.05182785747341C82.4,43.05182785747341,82.4,251.72836649699215,158.8,251.72836649699215" style="stroke: rgb(185, 242, 240);" stroke-width="0.2776492364645997"></path><path d="M6,29.9282739472467C82.4,29.9282739472467,82.4,104.62980101804722,158.8,104.62980101804722" style="stroke: rgb(255, 180, 130);" stroke-width="0.13882461823229986"></path><path d="M6,31.594169366034297C82.4,31.594169366034297,82.4,251.10365571494683,158.8,251.10365571494683" style="stroke: rgb(255, 180, 130);" stroke-width="0.971772327626099"></path><path d="M6,30.4835724201759C82.4,30.4835724201759,82.4,152.5289217954651,158.8,152.5289217954651" style="stroke: rgb(255, 180, 130);" stroke-width="0.971772327626099"></path><path d="M6,29.5118000925498C82.4,29.5118000925498,82.4,5.485886163813191,158.8,5.485886163813191" style="stroke: rgb(255, 180, 130);" stroke-width="0.41647385469689957"></path><path d="M6,32.1494678389635C82.4,32.1494678389635,82.4,328.57242017584446,158.8,328.57242017584446" style="stroke: rgb(255, 180, 130);" stroke-width="0.13882461823229986"></path><path d="M6,29.789449329014403C82.4,29.789449329014403,82.4,21.455344747802037,158.8,21.455344747802037" style="stroke: rgb(255, 180, 130);" stroke-width="0.13882461823229986"></path><path d="M6,31.0388708931051C82.4,31.0388708931051,82.4,225.69412309116146,158.8,225.69412309116146" style="stroke: rgb(255, 180, 130);" stroke-width="0.13882461823229986"></path><path d="M6,103.10735770476633C82.4,103.10735770476633,82.4,257.90606200832957,158.8,257.90606200832957" style="stroke: rgb(250, 176, 228);" stroke-width="3.470615455807496"></path><path d="M6,106.92503470615458C82.4,106.92503470615458,82.4,337.3877834335956,158.8,337.3877834335956" style="stroke: rgb(250, 176, 228);" stroke-width="4.164738546968996"></path><path d="M6,100.12262841277189C82.4,100.12262841277189,82.4,159.9560388708931,158.8,159.9560388708931" style="stroke: rgb(250, 176, 228);" stroke-width="2.2211938917167977"></path><path d="M6,97.34613604812587C82.4,97.34613604812587,82.4,6.527070800555441,158.8,6.527070800555441" style="stroke: rgb(250, 176, 228);" stroke-width="0.5552984729291994"></path><path d="M6,101.30263766774642C82.4,101.30263766774642,82.4,226.24942156409065,158.8,226.24942156409065" style="stroke: rgb(250, 176, 228);" stroke-width="0.13882461823229986"></path><path d="M6,98.94261915779732C82.4,98.94261915779732,82.4,107.12864414622862,158.8,107.12864414622862" style="stroke: rgb(250, 176, 228);" stroke-width="0.13882461823229986"></path><path d="M6,98.31790837575197C82.4,98.31790837575197,82.4,58.87783433595571,158.8,58.87783433595571" style="stroke: rgb(250, 176, 228);" stroke-width="1.1105969458583989"></path><path d="M6,97.69319759370661C82.4,97.69319759370661,82.4,40.34012031466928,158.8,40.34012031466928" style="stroke: rgb(250, 176, 228);" stroke-width="0.13882461823229986"></path><path d="M164.8,155.72188801480797C241.20000000000002,155.72188801480797,241.20000000000002,61.72373900971794,317.6,61.72373900971794" style="stroke: rgb(161, 201, 244);" stroke-width="5.414160111059695"></path><path d="M164.8,167.7302174919019C241.20000000000002,167.7302174919019,241.20000000000002,150.23368810735784,317.6,150.23368810735784" style="stroke: rgb(161, 201, 244);" stroke-width="14.437760296159185"></path><path d="M164.8,208.7528921795465C241.20000000000002,208.7528921795465,241.20000000000002,309.4099953725127,317.6,309.4099953725127" style="stroke: rgb(161, 201, 244);" stroke-width="9.30124942156409"></path><path d="M164.8,197.36927348449794C241.20000000000002,197.36927348449794,241.20000000000002,261.510874595095,317.6,261.510874595095" style="stroke: rgb(161, 201, 244);" stroke-width="13.465987968533087"></path><path d="M164.8,151.83479870430358C241.20000000000002,151.83479870430358,241.20000000000002,19.650624710782214,317.6,19.650624710782214" style="stroke: rgb(161, 201, 244);" stroke-width="1.2494215640906987"></path><path d="M164.8,182.79268857010644C241.20000000000002,182.79268857010644,241.20000000000002,202.50578435909318,317.6,202.50578435909318" style="stroke: rgb(161, 201, 244);" stroke-width="15.687181860249884"></path><path d="M164.8,152.73715872281355C241.20000000000002,152.73715872281355,241.20000000000002,34.4400740397966,317.6,34.4400740397966" style="stroke: rgb(161, 201, 244);" stroke-width="0.5552984729291994"></path><path d="M164.8,214.51411383618694C241.20000000000002,214.51411383618694,241.20000000000002,348.9102267468764,317.6,348.9102267468764" style="stroke: rgb(161, 201, 244);" stroke-width="2.2211938917167977"></path><path d="M164.8,159.47015270708008C241.20000000000002,159.47015270708008,241.20000000000002,88.24386857936162,317.6,88.24386857936162" style="stroke: rgb(161, 201, 244);" stroke-width="2.082369273484498"></path><path d="M164.8,126.49467838963444C241.20000000000002,126.49467838963444,241.20000000000002,247.55900046274886,317.6,247.55900046274886" style="stroke: rgb(208, 187, 255);" stroke-width="14.437760296159185"></path><path d="M164.8,105.60157334567332C241.20000000000002,105.60157334567332,241.20000000000002,33.81536325775125,317.6,33.81536325775125" style="stroke: rgb(208, 187, 255);" stroke-width="0.6941230911614993"></path><path d="M164.8,116.70754280425732C241.20000000000002,116.70754280425732,241.20000000000002,192.09393799167069,317.6,192.09393799167069" style="stroke: rgb(208, 187, 255);" stroke-width="5.1365108745950945"></path><path d="M164.8,138.43359555761225C241.20000000000002,138.43359555761225,241.20000000000002,345.023137436372,317.6,345.023137436372" style="stroke: rgb(208, 187, 255);" stroke-width="5.552984729291994"></path><path d="M164.8,110.46043498380381C241.20000000000002,110.46043498380381,241.20000000000002,85.18972697825102,317.6,85.18972697825102" style="stroke: rgb(208, 187, 255);" stroke-width="4.025913928736696"></path><path d="M164.8,134.68533086534015C241.20000000000002,134.68533086534015,241.20000000000002,303.7875983341046,317.6,303.7875983341046" style="stroke: rgb(208, 187, 255);" stroke-width="1.943544655252198"></path><path d="M164.8,113.30633965756596C241.20000000000002,113.30633965756596,241.20000000000002,142.18186024988447,317.6,142.18186024988447" style="stroke: rgb(208, 187, 255);" stroke-width="1.6658954187875983"></path><path d="M164.8,107.19805645534477C241.20000000000002,107.19805645534477,241.20000000000002,57.767237390097385,317.6,57.767237390097385" style="stroke: rgb(208, 187, 255);" stroke-width="2.4988431281813974"></path><path d="M164.8,104.35215178158262C241.20000000000002,104.35215178158262,241.20000000000002,5.485886163813191,317.6,5.485886163813191" style="stroke: rgb(208, 187, 255);" stroke-width="0.41647385469689957"></path><path d="M164.8,104.90745025451182C241.20000000000002,104.90745025451182,241.20000000000002,18.678852383156116,317.6,18.678852383156116" style="stroke: rgb(208, 187, 255);" stroke-width="0.6941230911614993"></path><path d="M164.8,29.507172605275432C241.20000000000002,29.507172605275432,241.20000000000002,333.98658028690414,317.6,333.98658028690414" style="stroke: rgb(141, 229, 161);" stroke-width="0.6941230911614993"></path><path d="M164.8,20.622397038408238C241.20000000000002,20.622397038408238,241.20000000000002,32.565941693660555,317.6,32.565941693660555" style="stroke: rgb(141, 229, 161);" stroke-width="0.13882461823229986"></path><path d="M164.8,20.344747801943637C241.20000000000002,20.344747801943637,241.20000000000002,16.735307727903916,317.6,16.735307727903916" style="stroke: rgb(141, 229, 161);" stroke-width="0.41647385469689957"></path><path d="M164.8,25.203609440074132C241.20000000000002,25.203609440074132,241.20000000000002,185.1527070800557,317.6,185.1527070800557" style="stroke: rgb(141, 229, 161);" stroke-width="0.41647385469689957"></path><path d="M164.8,27.63304025913938C241.20000000000002,27.63304025913938,241.20000000000002,297.67931513188336,317.6,297.67931513188336" style="stroke: rgb(141, 229, 161);" stroke-width="3.054141601110597"></path><path d="M164.8,24.787135585377232C241.20000000000002,24.787135585377232,241.20000000000002,138.91948172142543,317.6,138.91948172142543" style="stroke: rgb(141, 229, 161);" stroke-width="0.41647385469689957"></path><path d="M164.8,25.758907913003334C241.20000000000002,25.758907913003334,241.20000000000002,233.60712633040274,317.6,233.60712633040274" style="stroke: rgb(141, 229, 161);" stroke-width="0.6941230911614993"></path><path d="M164.8,22.496529384544285C241.20000000000002,22.496529384544285,241.20000000000002,49.8542341508563,317.6,49.8542341508563" style="stroke: rgb(141, 229, 161);" stroke-width="3.6094400740397963"></path><path d="M164.8,24.44007403979648C241.20000000000002,24.44007403979648,241.20000000000002,80.40027764923668,317.6,80.40027764923668" style="stroke: rgb(141, 229, 161);" stroke-width="0.2776492364645997"></path><path d="M164.8,250.8260064784822C241.20000000000002,250.8260064784822,241.20000000000002,21.316520129569813,317.6,21.316520129569813" style="stroke: rgb(255, 159, 155);" stroke-width="0.971772327626099"></path><path d="M164.8,298.72049976862564C241.20000000000002,298.72049976862564,241.20000000000002,318.0171217029153,317.6,318.0171217029153" style="stroke: rgb(255, 159, 155);" stroke-width="6.802406293382693"></path><path d="M164.8,292.9592781119852C241.20000000000002,292.9592781119852,241.20000000000002,273.519204072189,317.6,273.519204072189" style="stroke: rgb(255, 159, 155);" stroke-width="4.720037019898195"></path><path d="M164.8,254.01897269782512C241.20000000000002,254.01897269782512,241.20000000000002,66.02730217491924,317.6,66.02730217491924" style="stroke: rgb(255, 159, 155);" stroke-width="2.9153169828782968"></path><path d="M164.8,287.68394261915785C241.20000000000002,287.68394261915785,241.20000000000002,213.9588153632579,317.6,213.9588153632579" style="stroke: rgb(255, 159, 155);" stroke-width="5.8306339657565935"></path><path d="M164.8,310.1735307727904C241.20000000000002,310.1735307727904,241.20000000000002,361.4044423877833,317.6,361.4044423877833" style="stroke: rgb(255, 159, 155);" stroke-width="16.103655714946782"></path><path d="M164.8,266.929662193429C241.20000000000002,266.929662193429,241.20000000000002,106.56871818602521,317.6,106.56871818602521" style="stroke: rgb(255, 159, 155);" stroke-width="22.906062008329478"></path><path d="M164.8,281.5756594169366C241.20000000000002,281.5756594169366,241.20000000000002,160.92318371124495,317.6,160.92318371124495" style="stroke: rgb(255, 159, 155);" stroke-width="6.385932438685794"></path><path d="M164.8,251.9366034243406C241.20000000000002,251.9366034243406,241.20000000000002,35.62008329477115,317.6,35.62008329477115" style="stroke: rgb(255, 159, 155);" stroke-width="1.2494215640906987"></path><path d="M164.8,250.27070800555302C241.20000000000002,250.27070800555302,241.20000000000002,5.763535400277791,317.6,5.763535400277791" style="stroke: rgb(255, 159, 155);" stroke-width="0.13882461823229986"></path><path d="M164.8,382.22813512262843C241.20000000000002,382.22813512262843,241.20000000000002,382.2281351226283,317.6,382.2281351226283" style="stroke: rgb(105, 181, 191);" stroke-width="25.543729754743175"></path><path d="M164.8,328.7112447940768C241.20000000000002,328.7112447940768,241.20000000000002,22.149467838963613,317.6,22.149467838963613" style="stroke: rgb(105, 181, 191);" stroke-width="0.6941230911614993"></path><path d="M164.8,355.99028227672375C241.20000000000002,355.99028227672375,241.20000000000002,219.5118000925499,317.6,219.5118000925499" style="stroke: rgb(105, 181, 191);" stroke-width="5.275335492827395"></path><path d="M164.8,348.0078667283665C241.20000000000002,348.0078667283665,241.20000000000002,169.46089773253138,317.6,169.46089773253138" style="stroke: rgb(105, 181, 191);" stroke-width="10.689495603887089"></path><path d="M164.8,363.41739935215185C241.20000000000002,363.41739935215185,241.20000000000002,280.66867191115244,317.6,280.66867191115244" style="stroke: rgb(105, 181, 191);" stroke-width="9.57889865802869"></path><path d="M164.8,337.52660805182785C241.20000000000002,337.52660805182785,241.20000000000002,123.15826006478504,317.6,123.15826006478504" style="stroke: rgb(105, 181, 191);" stroke-width="10.273021749190189"></path><path d="M164.8,329.5441925034706C241.20000000000002,329.5441925034706,241.20000000000002,36.730680240629546,317.6,36.730680240629546" style="stroke: rgb(105, 181, 191);" stroke-width="0.971772327626099"></path><path d="M164.8,331.2100879222582C241.20000000000002,331.2100879222582,241.20000000000002,68.66496992133294,317.6,68.66496992133294" style="stroke: rgb(105, 181, 191);" stroke-width="2.3600185099490973"></path><path d="M164.8,368.8315594632115C241.20000000000002,368.8315594632115,241.20000000000002,322.043035631652,317.6,322.043035631652" style="stroke: rgb(105, 181, 191);" stroke-width="1.2494215640906987"></path><path d="M164.8,328.2947709393799C241.20000000000002,328.2947709393799,241.20000000000002,5.902360018510091,317.6,5.902360018510091" style="stroke: rgb(105, 181, 191);" stroke-width="0.13882461823229986"></path><path d="M164.8,58.25312355391036C241.20000000000002,58.25312355391036,241.20000000000002,54.50485886163835,317.6,54.50485886163835" style="stroke: rgb(222, 187, 155);" stroke-width="3.7482646922720964"></path><path d="M164.8,79.21564090698763C241.20000000000002,79.21564090698763,241.20000000000002,338.7066173068023,317.6,338.7066173068023" style="stroke: rgb(222, 187, 155);" stroke-width="5.969458583988894"></path><path d="M164.8,70.60851457658504C241.20000000000002,70.60851457658504,241.20000000000002,237.49421564090713,317.6,237.49421564090713" style="stroke: rgb(222, 187, 155);" stroke-width="5.414160111059695"></path><path d="M164.8,74.77325312355404C241.20000000000002,74.77325312355404,241.20000000000002,301.0805182785747,317.6,301.0805182785747" style="stroke: rgb(222, 187, 155);" stroke-width="2.9153169828782968"></path><path d="M164.8,55.82369273484511C241.20000000000002,55.82369273484511,241.20000000000002,17.360018509949267,317.6,17.360018509949267" style="stroke: rgb(222, 187, 155);" stroke-width="0.5552984729291994"></path><path d="M164.8,61.446089773253256C241.20000000000002,61.446089773253256,241.20000000000002,81.85793614067583,317.6,81.85793614067583" style="stroke: rgb(222, 187, 155);" stroke-width="2.6376677464136975"></path><path d="M164.8,63.597871355853904C241.20000000000002,63.597871355853904,241.20000000000002,140.51596483109688,317.6,140.51596483109688" style="stroke: rgb(222, 187, 155);" stroke-width="1.6658954187875983"></path><path d="M164.8,66.16612679315145C241.20000000000002,66.16612679315145,241.20000000000002,187.6515502082371,317.6,187.6515502082371" style="stroke: rgb(222, 187, 155);" stroke-width="3.470615455807496"></path><path d="M164.8,56.240166589542014C241.20000000000002,56.240166589542014,241.20000000000002,33.3294770939382,317.6,33.3294770939382" style="stroke: rgb(222, 187, 155);" stroke-width="0.2776492364645997"></path><path d="M164.8,55.407218880148214C241.20000000000002,55.407218880148214,241.20000000000002,5.138824618232442,317.6,5.138824618232442" style="stroke: rgb(222, 187, 155);" stroke-width="0.2776492364645997"></path><path d="M164.8,40.270708005553125C241.20000000000002,40.270708005553125,241.20000000000002,32.9130032392413,317.6,32.9130032392413" style="stroke: rgb(255, 254, 163);" stroke-width="0.5552984729291994"></path><path d="M164.8,41.03424340583078C241.20000000000002,41.03424340583078,241.20000000000002,52.14484035168925,317.6,52.14484035168925" style="stroke: rgb(255, 254, 163);" stroke-width="0.971772327626099"></path><path d="M164.8,42.35307727903763C241.20000000000002,42.35307727903763,241.20000000000002,185.63859324386877,317.6,185.63859324386877" style="stroke: rgb(255, 254, 163);" stroke-width="0.5552984729291994"></path><path d="M164.8,41.797778806108425C241.20000000000002,41.797778806108425,241.20000000000002,139.4053678852385,317.6,139.4053678852385" style="stroke: rgb(255, 254, 163);" stroke-width="0.5552984729291994"></path><path d="M164.8,43.04720037019913C241.20000000000002,43.04720037019913,241.20000000000002,234.37066173068038,317.6,234.37066173068038" style="stroke: rgb(255, 254, 163);" stroke-width="0.8329477093937991"></path><path d="M164.8,43.67191115224448C241.20000000000002,43.67191115224448,241.20000000000002,299.4146228597871,317.6,299.4146228597871" style="stroke: rgb(255, 254, 163);" stroke-width="0.41647385469689957"></path><path d="M164.8,44.57427117075443C241.20000000000002,44.57427117075443,241.20000000000002,335.0277649236464,317.6,335.0277649236464" style="stroke: rgb(255, 254, 163);" stroke-width="1.3882461823229986"></path><path d="M164.8,39.92364645997238C241.20000000000002,39.92364645997238,241.20000000000002,17.012956964368517,317.6,17.012956964368517" style="stroke: rgb(255, 254, 163);" stroke-width="0.13882461823229986"></path><path d="M164.8,7.01295696436849C241.20000000000002,7.01295696436849,241.20000000000002,138.50300786672852,317.6,138.50300786672852" style="stroke: rgb(255, 180, 130);" stroke-width="0.41647385469689957"></path><path d="M164.8,5.277649236464741C241.20000000000002,5.277649236464741,241.20000000000002,16.24942156409087,317.6,16.24942156409087" style="stroke: rgb(255, 180, 130);" stroke-width="0.5552984729291994"></path><path d="M164.8,9.650624710782187C241.20000000000002,9.650624710782187,241.20000000000002,333.15363257751034,317.6,333.15363257751034" style="stroke: rgb(255, 180, 130);" stroke-width="0.971772327626099"></path><path d="M164.8,7.915316982878439C241.20000000000002,7.915316982878439,241.20000000000002,232.7047663118928,317.6,232.7047663118928" style="stroke: rgb(255, 180, 130);" stroke-width="1.1105969458583989"></path><path d="M164.8,5.971772327626241C241.20000000000002,5.971772327626241,241.20000000000002,47.6330402591395,317.6,47.6330402591395" style="stroke: rgb(255, 180, 130);" stroke-width="0.8329477093937991"></path><path d="M164.8,8.81767700138839C241.20000000000002,8.81767700138839,241.20000000000002,295.8051827857473,317.6,295.8051827857473" style="stroke: rgb(255, 180, 130);" stroke-width="0.6941230911614993"></path><path d="M164.8,6.59648310967159C241.20000000000002,6.59648310967159,241.20000000000002,80.05321610365593,317.6,80.05321610365593" style="stroke: rgb(255, 180, 130);" stroke-width="0.41647385469689957"></path><path d="M164.8,7.29060620083309C241.20000000000002,7.29060620083309,241.20000000000002,184.87505784359112,317.6,184.87505784359112" style="stroke: rgb(255, 180, 130);" stroke-width="0.13882461823229986"></path><path d="M164.8,93.44979176307275C241.20000000000002,93.44979176307275,241.20000000000002,302.6770013882462,317.6,302.6770013882462" style="stroke: rgb(185, 242, 240);" stroke-width="0.2776492364645997"></path><path d="M164.8,92.54743174456277C241.20000000000002,92.54743174456277,241.20000000000002,17.984729291994615,317.6,17.984729291994615" style="stroke: rgb(185, 242, 240);" stroke-width="0.6941230911614993"></path><path d="M164.8,93.86626561776964C241.20000000000002,93.86626561776964,241.20000000000002,341.96899583526135,317.6,341.96899583526135" style="stroke: rgb(185, 242, 240);" stroke-width="0.5552984729291994"></path><path d="M164.8,93.10273021749198C241.20000000000002,93.10273021749198,241.20000000000002,189.456270245257,317.6,189.456270245257" style="stroke: rgb(185, 242, 240);" stroke-width="0.13882461823229986"></path><path d="M164.8,92.96390559925968C241.20000000000002,92.96390559925968,241.20000000000002,56.448403516890544,317.6,56.448403516890544" style="stroke: rgb(185, 242, 240);" stroke-width="0.13882461823229986"></path><path d="M164.8,93.24155483572429C241.20000000000002,93.24155483572429,241.20000000000002,240.27070800555313,317.6,240.27070800555313" style="stroke: rgb(185, 242, 240);" stroke-width="0.13882461823229986"></path><path d="M164.8,234.85654789449325C241.20000000000002,234.85654789449325,241.20000000000002,269.7015270708007,317.6,269.7015270708007" style="stroke: rgb(250, 176, 228);" stroke-width="2.9153169828782968"></path><path d="M164.8,229.5118000925497C241.20000000000002,229.5118000925497,241.20000000000002,92.20037019898217,317.6,92.20037019898217" style="stroke: rgb(250, 176, 228);" stroke-width="5.8306339657565935"></path><path d="M164.8,233.05182785747334C241.20000000000002,233.05182785747334,241.20000000000002,210.69643683479887,317.6,210.69643683479887" style="stroke: rgb(250, 176, 228);" stroke-width="0.6941230911614993"></path><path d="M164.8,238.53540027764916C241.20000000000002,238.53540027764916,241.20000000000002,351.6867191115224,317.6,351.6867191115224" style="stroke: rgb(250, 176, 228);" stroke-width="3.3317908375751966"></path><path d="M164.8,226.31883387320678C241.20000000000002,226.31883387320678,241.20000000000002,34.8565478944935,317.6,34.8565478944935" style="stroke: rgb(250, 176, 228);" stroke-width="0.2776492364645997"></path><path d="M164.8,236.591855622397C241.20000000000002,236.591855622397,241.20000000000002,314.3382693197593,317.6,314.3382693197593" style="stroke: rgb(250, 176, 228);" stroke-width="0.5552984729291994"></path><path d="M164.8,225.9023600185099C241.20000000000002,225.9023600185099,241.20000000000002,20.552984729292167,317.6,20.552984729292167" style="stroke: rgb(250, 176, 228);" stroke-width="0.5552984729291994"></path><path d="M164.8,232.56594169366028C241.20000000000002,232.56594169366028,241.20000000000002,157.59139287366972,317.6,157.59139287366972" style="stroke: rgb(250, 176, 228);" stroke-width="0.2776492364645997"></path><path d="M164.8,226.52707080055526C241.20000000000002,226.52707080055526,241.20000000000002,64.50023137436393,317.6,64.50023137436393" style="stroke: rgb(250, 176, 228);" stroke-width="0.13882461823229986"></path><path d="M323.6,66.16612679315153C400,66.16612679315153,400,355.64553447478033,476.40000000000003,355.64553447478033" style="stroke: rgb(141, 229, 161);" stroke-width="7.357704766311892"></path><path d="M323.6,55.615455807496744C400,55.615455807496744,400,255.2660805182786,476.40000000000003,255.2660805182786" style="stroke: rgb(141, 229, 161);" stroke-width="3.470615455807496"></path><path d="M323.6,59.91901897269804C400,59.91901897269804,400,301.2216566404441,476.40000000000003,301.2216566404441" style="stroke: rgb(141, 229, 161);" stroke-width="5.1365108745950945"></path><path d="M323.6,49.090698750578646C400,49.090698750578646,400,110.735770476631,476.40000000000003,110.735770476631" style="stroke: rgb(141, 229, 161);" stroke-width="1.5270708005552984"></path><path d="M323.6,47.285978713558755C400,47.285978713558755,400,52.97547431744539,476.40000000000003,52.97547431744539" style="stroke: rgb(141, 229, 161);" stroke-width="0.13882461823229986"></path><path d="M323.6,47.84127718648795C400,47.84127718648795,400,67.83433595557588,476.40000000000003,67.83433595557588" style="stroke: rgb(141, 229, 161);" stroke-width="0.971772327626099"></path><path d="M323.6,50.75659416936625C400,50.75659416936625,400,158.07959278111974,476.40000000000003,158.07959278111974" style="stroke: rgb(141, 229, 161);" stroke-width="1.8047200370198981"></path><path d="M323.6,52.769551133734595C400,52.769551133734595,400,224.65062471078204,476.40000000000003,224.65062471078204" style="stroke: rgb(141, 229, 161);" stroke-width="2.2211938917167977"></path><path d="M323.6,172.51503933364197C400,172.51503933364197,400,362.0314669134661,476.40000000000003,362.0314669134661" style="stroke: rgb(208, 187, 255);" stroke-width="4.581212401665895"></path><path d="M323.6,162.45025451180024C400,162.45025451180024,400,261.58260064784827,476.40000000000003,261.58260064784827" style="stroke: rgb(208, 187, 255);" stroke-width="4.442387783433595"></path><path d="M323.6,155.09254974548833C400,155.09254974548833,400,185.08098102730207,476.40000000000003,185.08098102730207" style="stroke: rgb(208, 187, 255);" stroke-width="4.164738546968996"></path><path d="M323.6,149.3313280888479C400,149.3313280888479,400,120.45349375289199,476.40000000000003,120.45349375289199" style="stroke: rgb(208, 187, 255);" stroke-width="7.357704766311892"></path><path d="M323.6,143.84775566867205C400,143.84775566867205,400,79.28736695974062,476.40000000000003,79.28736695974062" style="stroke: rgb(208, 187, 255);" stroke-width="3.6094400740397963"></path><path d="M323.6,158.70198981952814C400,158.70198981952814,400,228.53771402128646,476.40000000000003,228.53771402128646" style="stroke: rgb(208, 187, 255);" stroke-width="3.054141601110597"></path><path d="M323.6,167.44794076816302C400,167.44794076816302,400,308.2322998611753,476.40000000000003,308.2322998611753" style="stroke: rgb(208, 187, 255);" stroke-width="5.552984729291994"></path><path d="M323.6,141.6959740860714C400,141.6959740860714,400,53.94724664507149,476.40000000000003,53.94724664507149" style="stroke: rgb(208, 187, 255);" stroke-width="0.6941230911614993"></path><path d="M323.6,138.50300786672852C400,138.50300786672852,400,11.180009254974458,476.40000000000003,11.180009254974458" style="stroke: rgb(208, 187, 255);" stroke-width="0.13882461823229986"></path><path d="M323.6,139.96066635816766C400,139.96066635816766,400,27.635354002776335,476.40000000000003,27.635354002776335" style="stroke: rgb(208, 187, 255);" stroke-width="2.776492364645997"></path><path d="M323.6,138.36418324849623C400,138.36418324849623,400,0.48588616381299266,476.40000000000003,0.48588616381299266" style="stroke: rgb(208, 187, 255);" stroke-width="0.13882461823229986"></path><path d="M323.6,280.94632114761697C400,280.94632114761697,400,374.24803331790844,476.40000000000003,374.24803331790844" style="stroke: rgb(255, 159, 155);" stroke-width="9.023600185099491"></path><path d="M323.6,244.57427117075443C400,244.57427117075443,400,84.77093937991646,476.40000000000003,84.77093937991646" style="stroke: rgb(255, 159, 155);" stroke-width="2.9153169828782968"></path><path d="M323.6,256.1661267931514C400,256.1661267931514,400,200.49051365108738,476.40000000000003,200.49051365108738" style="stroke: rgb(255, 159, 155);" stroke-width="16.936603424340582"></path><path d="M323.6,272.4780194354467C400,272.4780194354467,400,319.8241554835724,476.40000000000003,319.8241554835724" style="stroke: rgb(255, 159, 155);" stroke-width="7.913003239241092"></path><path d="M323.6,232.21888014807976C400,232.21888014807976,400,11.457658491439059,476.40000000000003,11.457658491439059" style="stroke: rgb(255, 159, 155);" stroke-width="0.13882461823229986"></path><path d="M323.6,267.1332716335031C400,267.1332716335031,400,271.5779731605739,476.40000000000003,271.5779731605739" style="stroke: rgb(255, 159, 155);" stroke-width="2.776492364645997"></path><path d="M323.6,237.63304025913945C400,237.63304025913945,400,35.34012031466898,476.40000000000003,35.34012031466898" style="stroke: rgb(255, 159, 155);" stroke-width="10.689495603887089"></path><path d="M323.6,246.86487737158737C400,246.86487737158737,400,131.07357704766295,476.40000000000003,131.07357704766295" style="stroke: rgb(255, 159, 155);" stroke-width="1.6658954187875983"></path><path d="M323.6,265.189726978251C400,265.189726978251,400,235.75659416936605,476.40000000000003,235.75659416936605" style="stroke: rgb(255, 159, 155);" stroke-width="1.1105969458583989"></path><path d="M323.6,243.04720037019914C400,243.04720037019914,400,55.61314206385909,476.40000000000003,55.61314206385909" style="stroke: rgb(255, 159, 155);" stroke-width="0.13882461823229986"></path><path d="M323.6,392.7788061082831C400,392.7788061082831,400,397.7788061082833,476.40000000000003,397.7788061082833" style="stroke: rgb(161, 201, 244);" stroke-width="4.442387783433595"></path><path d="M323.6,364.1809347524294C400,364.1809347524294,400,240.47663118926422,476.40000000000003,240.47663118926422" style="stroke: rgb(161, 201, 244);" stroke-width="4.164738546968996"></path><path d="M323.6,353.76908838500685C400,353.76908838500685,400,138.70893105043942,476.40000000000003,138.70893105043942" style="stroke: rgb(161, 201, 244);" stroke-width="12.216566404442387"></path><path d="M323.6,373.06571031929656C400,373.06571031929656,400,281.5733456732995,476.40000000000003,281.5733456732995" style="stroke: rgb(161, 201, 244);" stroke-width="13.604812586765386"></path><path d="M323.6,360.9879685330865C400,360.9879685330865,400,211.73530772790363,476.40000000000003,211.73530772790363" style="stroke: rgb(161, 201, 244);" stroke-width="2.2211938917167977"></path><path d="M323.6,385.21286441462274C400,385.21286441462274,400,332.45719574271163,476.40000000000003,332.45719574271163" style="stroke: rgb(161, 201, 244);" stroke-width="10.689495603887089"></path><path d="M323.6,341.4136973623322C400,341.4136973623322,400,93.03100416473829,476.40000000000003,93.03100416473829" style="stroke: rgb(161, 201, 244);" stroke-width="12.494215640906987"></path><path d="M323.6,334.6112910689495C400,334.6112910689495,400,56.237852845904435,476.40000000000003,56.237852845904435" style="stroke: rgb(161, 201, 244);" stroke-width="1.1105969458583989"></path><path d="M323.6,333.4312818139749C400,333.4312818139749,400,41.587228135122466,476.40000000000003,41.587228135122466" style="stroke: rgb(161, 201, 244);" stroke-width="1.2494215640906987"></path><path d="M323.6,332.73715872281343C400,332.73715872281343,400,11.59648310967136,476.40000000000003,11.59648310967136" style="stroke: rgb(161, 201, 244);" stroke-width="0.13882461823229986"></path><path d="M323.6,21.385932438685963C400,21.385932438685963,400,348.9125404905138,476.40000000000003,348.9125404905138" style="stroke: rgb(255, 180, 130);" stroke-width="2.2211938917167977"></path><path d="M323.6,18.262378528459216C400,18.262378528459216,400,155.71957427117064,476.40000000000003,155.71957427117064" style="stroke: rgb(255, 180, 130);" stroke-width="1.2494215640906987"></path><path d="M323.6,19.16473854696917C400,19.16473854696917,400,223.12355391022678,476.40000000000003,223.12355391022678" style="stroke: rgb(255, 180, 130);" stroke-width="0.5552984729291994"></path><path d="M323.6,16.24942156409087C400,16.24942156409087,400,22.082369273484343,476.40000000000003,22.082369273484343" style="stroke: rgb(255, 180, 130);" stroke-width="0.5552984729291994"></path><path d="M323.6,20.205923183711416C400,20.205923183711416,400,298.4451642757981,476.40000000000003,298.4451642757981" style="stroke: rgb(255, 180, 130);" stroke-width="0.13882461823229986"></path><path d="M323.6,17.429430819065416C400,17.429430819065416,400,109.7639981490049,476.40000000000003,109.7639981490049" style="stroke: rgb(255, 180, 130);" stroke-width="0.41647385469689957"></path><path d="M323.6,19.789449329014516C400,19.789449329014516,400,252.9060620083295,476.40000000000003,252.9060620083295" style="stroke: rgb(255, 180, 130);" stroke-width="0.6941230911614993"></path><path d="M323.6,17.012956964368517C400,17.012956964368517,400,67.00138824618207,476.40000000000003,67.00138824618207" style="stroke: rgb(255, 180, 130);" stroke-width="0.41647385469689957"></path><path d="M323.6,16.665895418787766C400,16.665895418787766,400,52.62841277186464,476.40000000000003,52.62841277186464" style="stroke: rgb(255, 180, 130);" stroke-width="0.2776492364645997"></path><path d="M323.6,314.26885701064316C400,314.26885701064316,400,387.1587228135123,476.40000000000003,387.1587228135123" style="stroke: rgb(255, 254, 163);" stroke-width="16.797778806108283"></path><path d="M323.6,296.01341971309574C400,296.01341971309574,400,86.5062471078202,476.40000000000003,86.5062471078202" style="stroke: rgb(255, 254, 163);" stroke-width="0.5552984729291994"></path><path d="M323.6,299.6922720962517C400,299.6922720962517,400,237.3530772790375,476.40000000000003,237.3530772790375" style="stroke: rgb(255, 254, 163);" stroke-width="2.082369273484498"></path><path d="M323.6,297.8181397501157C400,297.8181397501157,400,209.79176307265146,476.40000000000003,209.79176307265146" style="stroke: rgb(255, 254, 163);" stroke-width="1.6658954187875983"></path><path d="M323.6,304.2040721888015C400,304.2040721888015,400,325.44655252198055,476.40000000000003,325.44655252198055" style="stroke: rgb(255, 254, 163);" stroke-width="3.3317908375751966"></path><path d="M323.6,301.63581675150397C400,301.63581675150397,400,273.8685793614069,476.40000000000003,273.8685793614069" style="stroke: rgb(255, 254, 163);" stroke-width="1.8047200370198981"></path><path d="M323.6,296.6381304951411C400,296.6381304951411,400,132.25358630263747,476.40000000000003,132.25358630263747" style="stroke: rgb(255, 254, 163);" stroke-width="0.6941230911614993"></path><path d="M323.6,295.5969458583989C400,295.5969458583989,400,40.82369273484482,476.40000000000003,40.82369273484482" style="stroke: rgb(255, 254, 163);" stroke-width="0.2776492364645997"></path><path d="M323.6,36.24479407681649C400,36.24479407681649,400,350.9949097639983,476.40000000000003,350.9949097639983" style="stroke: rgb(250, 176, 228);" stroke-width="1.943544655252198"></path><path d="M323.6,34.30124942156429C400,34.30124942156429,400,156.7607589079129,476.40000000000003,156.7607589079129" style="stroke: rgb(250, 176, 228);" stroke-width="0.8329477093937991"></path><path d="M323.6,34.995372512725794C400,34.995372512725794,400,253.39194817214255,476.40000000000003,253.39194817214255" style="stroke: rgb(250, 176, 228);" stroke-width="0.2776492364645997"></path><path d="M323.6,33.190652475705896C400,33.190652475705896,400,22.77649236464584,476.40000000000003,22.77649236464584" style="stroke: rgb(250, 176, 228);" stroke-width="0.8329477093937991"></path><path d="M323.6,32.6353540027767C400,32.6353540027767,400,10.69412309116141,476.40000000000003,10.69412309116141" style="stroke: rgb(250, 176, 228);" stroke-width="0.2776492364645997"></path><path d="M323.6,35.203609440074246C400,35.203609440074246,400,298.5839888940304,476.40000000000003,298.5839888940304" style="stroke: rgb(250, 176, 228);" stroke-width="0.13882461823229986"></path><path d="M323.6,34.78713558537735C400,34.78713558537735,400,223.47061545580752,476.40000000000003,223.47061545580752" style="stroke: rgb(250, 176, 228);" stroke-width="0.13882461823229986"></path><path d="M323.6,33.81536325775125C400,33.81536325775125,400,67.27903748264667,476.40000000000003,67.27903748264667" style="stroke: rgb(250, 176, 228);" stroke-width="0.13882461823229986"></path><path d="M323.6,33.67653863951895C400,33.67653863951895,400,52.83664969921309,476.40000000000003,52.83664969921309" style="stroke: rgb(250, 176, 228);" stroke-width="0.13882461823229986"></path><path d="M323.6,219.4423877834338C400,219.4423877834338,400,367.0291531698289,476.40000000000003,367.0291531698289" style="stroke: rgb(222, 187, 155);" stroke-width="5.414160111059695"></path><path d="M323.6,208.68347987043057C400,208.68347987043057,400,266.996760758908,476.40000000000003,266.996760758908" style="stroke: rgb(222, 187, 155);" stroke-width="6.385932438685794"></path><path d="M323.6,202.92225821379012C400,202.92225821379012,400,232.6330402591393,476.40000000000003,232.6330402591393" style="stroke: rgb(222, 187, 155);" stroke-width="5.1365108745950945"></path><path d="M323.6,188.27626099028245C400,188.27626099028245,400,82.20268394261892,476.40000000000003,82.20268394261892" style="stroke: rgb(222, 187, 155);" stroke-width="2.2211938917167977"></path><path d="M323.6,197.92457195742733C400,197.92457195742733,400,189.59278111985185,476.40000000000003,189.59278111985185" style="stroke: rgb(222, 187, 155);" stroke-width="4.858861638130495"></path><path d="M323.6,192.44099953725146C400,192.44099953725146,400,127.18648773715854,476.40000000000003,127.18648773715854" style="stroke: rgb(222, 187, 155);" stroke-width="6.108283202221194"></path><path d="M323.6,214.3058769088387C400,214.3058769088387,400,313.43822304488657,476.40000000000003,313.43822304488657" style="stroke: rgb(222, 187, 155);" stroke-width="4.858861638130495"></path><path d="M323.6,186.5409532623787C400,186.5409532623787,400,54.919018972697586,476.40000000000003,54.919018972697586" style="stroke: rgb(222, 187, 155);" stroke-width="1.2494215640906987"></path><path d="M323.6,185.43035631652032C400,185.43035631652032,400,29.509486348912382,476.40000000000003,29.509486348912382" style="stroke: rgb(222, 187, 155);" stroke-width="0.971772327626099"></path><path d="M323.6,184.87505784359112C400,184.87505784359112,400,11.318833873206758,476.40000000000003,11.318833873206758" style="stroke: rgb(222, 187, 155);" stroke-width="0.13882461823229986"></path><path d="M323.6,88.72975474317467C400,88.72975474317467,400,72.90143452105482,476.40000000000003,72.90143452105482" style="stroke: rgb(105, 181, 191);" stroke-width="9.16242480333179"></path><path d="M323.6,110.5946321147619C400,110.5946321147619,400,170.99028227672363,476.40000000000003,170.99028227672363" style="stroke: rgb(105, 181, 191);" stroke-width="24.016658954187875"></path><path d="M323.6,123.22767237390119C400,123.22767237390119,400,226.3859324386858,476.40000000000003,226.3859324386858" style="stroke: rgb(105, 181, 191);" stroke-width="1.2494215640906987"></path><path d="M323.6,82.06617306802427C400,82.06617306802427,400,24.720037019898037,476.40000000000003,24.720037019898037" style="stroke: rgb(105, 181, 191);" stroke-width="3.054141601110597"></path><path d="M323.6,95.94863489125426C400,95.94863489125426,400,114.13697362332235,476.40000000000003,114.13697362332235" style="stroke: rgb(105, 181, 191);" stroke-width="5.275335492827395"></path><path d="M323.6,127.04534937528942C400,127.04534937528942,400,304.6228597871355,476.40000000000003,304.6228597871355" style="stroke: rgb(105, 181, 191);" stroke-width="1.6658954187875983"></path><path d="M323.6,80.05321610365593C400,80.05321610365593,400,0.20823692734839294,476.40000000000003,0.20823692734839294" style="stroke: rgb(105, 181, 191);" stroke-width="0.41647385469689957"></path><path d="M323.6,128.08653401203168C400,128.08653401203168,400,359.53262378528467,476.40000000000003,359.53262378528467" style="stroke: rgb(105, 181, 191);" stroke-width="0.41647385469689957"></path><path d="M323.6,80.40027764923668C400,80.40027764923668,400,10.97177232762601,476.40000000000003,10.97177232762601" style="stroke: rgb(105, 181, 191);" stroke-width="0.2776492364645997"></path><path d="M323.6,83.87089310504417C400,83.87089310504417,400,53.32253586302613,476.40000000000003,53.32253586302613" style="stroke: rgb(105, 181, 191);" stroke-width="0.5552984729291994"></path><path d="M323.6,125.03239241092108C400,125.03239241092108,400,258.18139750115694,476.40000000000003,258.18139750115694" style="stroke: rgb(105, 181, 191);" stroke-width="2.3600185099490973"></path><path d="M323.6,5.5552984729293415C400,5.5552984729293415,400,109.41693660342416,476.40000000000003,109.41693660342416" style="stroke: rgb(185, 242, 240);" stroke-width="0.2776492364645997"></path><path d="M323.6,5.069412309116292C400,5.069412309116292,400,21.735307727903592,476.40000000000003,21.735307727903592" style="stroke: rgb(185, 242, 240);" stroke-width="0.13882461823229986"></path><path d="M323.6,5.832947709393941C400,5.832947709393941,400,154.95603887089297,476.40000000000003,154.95603887089297" style="stroke: rgb(185, 242, 240);" stroke-width="0.2776492364645997"></path><path d="M323.6,5.277649236464741C400,5.277649236464741,400,52.35076353540004,476.40000000000003,52.35076353540004" style="stroke: rgb(185, 242, 240);" stroke-width="0.2776492364645997"></path><path d="M482.40000000000003,373.90097177232775C558.8000000000001,373.90097177232775,558.8000000000001,373.9009717723278,635.2,373.9009717723278" style="stroke: rgb(207, 207, 207);" stroke-width="52.19805645534475"></path><path d="M482.40000000000003,262.9708468301713C558.8000000000001,262.9708468301713,558.8000000000001,228.2646922720961,635.2,228.2646922720961" style="stroke: rgb(141, 229, 161);" stroke-width="4.997686256362795"></path><path d="M482.40000000000003,259.5696436834799C558.8000000000001,259.5696436834799,558.8000000000001,146.55714946783885,635.2,146.55714946783885" style="stroke: rgb(141, 229, 161);" stroke-width="0.971772327626099"></path><path d="M482.40000000000003,273.52151781582603C558.8000000000001,273.52151781582603,558.8000000000001,280.0509023600185,635.2,280.0509023600185" style="stroke: rgb(141, 229, 161);" stroke-width="16.103655714946782"></path><path d="M482.40000000000003,257.97316057380846C558.8000000000001,257.97316057380846,558.8000000000001,128.43590930124927,635.2,128.43590930124927" style="stroke: rgb(141, 229, 161);" stroke-width="2.2211938917167977"></path><path d="M482.40000000000003,284.9745488199908C558.8000000000001,284.9745488199908,558.8000000000001,320.9393799167054,635.2,320.9393799167054" style="stroke: rgb(141, 229, 161);" stroke-width="6.802406293382693"></path><path d="M482.40000000000003,256.1684405367886C558.8000000000001,256.1684405367886,558.8000000000001,82.33688107357696,635.2,82.33688107357696" style="stroke: rgb(141, 229, 161);" stroke-width="1.3882461823229986"></path><path d="M482.40000000000003,260.2637667746414C558.8000000000001,260.2637667746414,558.8000000000001,164.88662656177686,635.2,164.88662656177686" style="stroke: rgb(141, 229, 161);" stroke-width="0.41647385469689957"></path><path d="M482.40000000000003,253.39194817214258C558.8000000000001,253.39194817214258,558.8000000000001,45.955576122165574,635.2,45.955576122165574" style="stroke: rgb(141, 229, 161);" stroke-width="1.6658954187875983"></path><path d="M482.40000000000003,254.8496066635817C558.8000000000001,254.8496066635817,558.8000000000001,61.43914854234133,635.2,61.43914854234133" style="stroke: rgb(141, 229, 161);" stroke-width="1.2494215640906987"></path><path d="M482.40000000000003,85.88153632577486C558.8000000000001,85.88153632577486,558.8000000000001,186.13142063859308,635.2,186.13142063859308" style="stroke: rgb(208, 187, 255);" stroke-width="10.41184636742249"></path><path d="M482.40000000000003,80.25913928736672C558.8000000000001,80.25913928736672,558.8000000000001,158.5701064322072,635.2,158.5701064322072" style="stroke: rgb(208, 187, 255);" stroke-width="0.8329477093937991"></path><path d="M482.40000000000003,75.88616381304927C558.8000000000001,75.88616381304927,558.8000000000001,111.15224433132794,635.2,111.15224433132794" style="stroke: rgb(208, 187, 255);" stroke-width="7.357704766311892"></path><path d="M482.40000000000003,94.28042572882899C558.8000000000001,94.28042572882899,558.8000000000001,248.81536325775102,635.2,248.81536325775102" style="stroke: rgb(208, 187, 255);" stroke-width="6.385932438685794"></path><path d="M482.40000000000003,68.73669597408582C558.8000000000001,68.73669597408582,558.8000000000001,22.4942156409069,635.2,22.4942156409069" style="stroke: rgb(208, 187, 255);" stroke-width="3.3317908375751966"></path><path d="M482.40000000000003,98.37575196668185C558.8000000000001,98.37575196668185,558.8000000000001,306.6404442387785,635.2,306.6404442387785" style="stroke: rgb(208, 187, 255);" stroke-width="1.8047200370198981"></path><path d="M482.40000000000003,66.93197593706593C558.8000000000001,66.93197593706593,558.8000000000001,0.4164738546967859,635.2,0.4164738546967859" style="stroke: rgb(208, 187, 255);" stroke-width="0.2776492364645997"></path><path d="M482.40000000000003,79.70384081443753C558.8000000000001,79.70384081443753,558.8000000000001,142.3229986117537,635.2,142.3229986117537" style="stroke: rgb(208, 187, 255);" stroke-width="0.2776492364645997"></path><path d="M482.40000000000003,70.88847755668647C558.8000000000001,70.88847755668647,558.8000000000001,58.94030541415994,635.2,58.94030541415994" style="stroke: rgb(208, 187, 255);" stroke-width="0.971772327626099"></path><path d="M482.40000000000003,71.72142526608026C558.8000000000001,71.72142526608026,558.8000000000001,77.269782508098,635.2,77.269782508098" style="stroke: rgb(208, 187, 255);" stroke-width="0.6941230911614993"></path><path d="M482.40000000000003,72.13789912077716C558.8000000000001,72.13789912077716,558.8000000000001,94.34983803794528,635.2,94.34983803794528" style="stroke: rgb(208, 187, 255);" stroke-width="0.13882461823229986"></path><path d="M482.40000000000003,230.34243405830634C558.8000000000001,230.34243405830634,558.8000000000001,223.40583063396562,635.2,223.40583063396562" style="stroke: rgb(255, 159, 155);" stroke-width="4.720037019898195"></path><path d="M482.40000000000003,235.270708005553C558.8000000000001,235.270708005553,558.8000000000001,269.43081906524753,635.2,269.43081906524753" style="stroke: rgb(255, 159, 155);" stroke-width="5.1365108745950945"></path><path d="M482.40000000000003,225.20592318371126C558.8000000000001,225.20592318371126,558.8000000000001,80.80981027302165,635.2,80.80981027302165" style="stroke: rgb(255, 159, 155);" stroke-width="1.6658954187875983"></path><path d="M482.40000000000003,222.91531698287832C558.8000000000001,222.91531698287832,558.8000000000001,0.7635354002775355,635.2,0.7635354002775355" style="stroke: rgb(255, 159, 155);" stroke-width="0.13882461823229986"></path><path d="M482.40000000000003,227.56594169366033C558.8000000000001,227.56594169366033,558.8000000000001,164.2619157797315,635.2,164.2619157797315" style="stroke: rgb(255, 159, 155);" stroke-width="0.8329477093937991"></path><path d="M482.40000000000003,226.38593243868578C558.8000000000001,226.38593243868578,558.8000000000001,126.97825080981012,635.2,126.97825080981012" style="stroke: rgb(255, 159, 155);" stroke-width="0.6941230911614993"></path><path d="M482.40000000000003,240.19898195279964C558.8000000000001,240.19898195279964,558.8000000000001,315.17815826006495,635.2,315.17815826006495" style="stroke: rgb(255, 159, 155);" stroke-width="4.720037019898195"></path><path d="M482.40000000000003,224.30356316520133C558.8000000000001,224.30356316520133,558.8000000000001,60.745025451179835,635.2,60.745025451179835" style="stroke: rgb(255, 159, 155);" stroke-width="0.13882461823229986"></path><path d="M482.40000000000003,223.6094400740398C558.8000000000001,223.6094400740398,558.8000000000001,44.49791763072643,635.2,44.49791763072643" style="stroke: rgb(255, 159, 155);" stroke-width="1.2494215640906987"></path><path d="M482.40000000000003,226.94123091161498C558.8000000000001,226.94123091161498,558.8000000000001,145.86302637667734,635.2,145.86302637667734" style="stroke: rgb(255, 159, 155);" stroke-width="0.41647385469689957"></path><path d="M482.40000000000003,140.30541416011087C558.8000000000001,140.30541416011087,558.8000000000001,255.27070800555293,635.2,255.27070800555293" style="stroke: rgb(222, 187, 155);" stroke-width="6.5247570569180935"></path><path d="M482.40000000000003,121.35585377140194C558.8000000000001,121.35585377140194,558.8000000000001,159.81952799629792,635.2,159.81952799629792" style="stroke: rgb(222, 187, 155);" stroke-width="1.6658954187875983"></path><path d="M482.40000000000003,129.6159185562238C558.8000000000001,129.6159185562238,558.8000000000001,198.7644608977324,635.2,198.7644608977324" style="stroke: rgb(222, 187, 155);" stroke-width="14.854234150856085"></path><path d="M482.40000000000003,116.9828782970845C558.8000000000001,116.9828782970845,558.8000000000001,117.67700138824604,635.2,117.67700138824604" style="stroke: rgb(222, 187, 155);" stroke-width="5.691809347524294"></path><path d="M482.40000000000003,144.1925034706153C558.8000000000001,144.1925034706153,558.8000000000001,308.16751503933375,635.2,308.16751503933375" style="stroke: rgb(222, 187, 155);" stroke-width="1.2494215640906987"></path><path d="M482.40000000000003,110.38870893105026C558.8000000000001,110.38870893105026,558.8000000000001,25.270708005552898,635.2,25.270708005552898" style="stroke: rgb(222, 187, 155);" stroke-width="2.2211938917167977"></path><path d="M482.40000000000003,113.16520129569624C558.8000000000001,113.16520129569624,558.8000000000001,78.44979176307255,635.2,78.44979176307255" style="stroke: rgb(222, 187, 155);" stroke-width="1.6658954187875983"></path><path d="M482.40000000000003,114.06756131420619C558.8000000000001,114.06756131420619,558.8000000000001,94.48866265617758,635.2,94.48866265617758" style="stroke: rgb(222, 187, 155);" stroke-width="0.13882461823229986"></path><path d="M482.40000000000003,120.17584451642739C558.8000000000001,120.17584451642739,558.8000000000001,142.80888477556675,635.2,142.80888477556675" style="stroke: rgb(222, 187, 155);" stroke-width="0.6941230911614993"></path><path d="M482.40000000000003,111.91577973160555C558.8000000000001,111.91577973160555,558.8000000000001,59.84266543266988,635.2,59.84266543266988" style="stroke: rgb(222, 187, 155);" stroke-width="0.8329477093937991"></path><path d="M482.40000000000003,163.70198981952785C558.8000000000001,163.70198981952785,558.8000000000001,35.12725590004619,635.2,35.12725590004619" style="stroke: rgb(161, 201, 244);" stroke-width="17.49190189726978"></path><path d="M482.40000000000003,193.06339657565928C558.8000000000001,193.06339657565928,558.8000000000001,213.61869504858848,635.2,213.61869504858848" style="stroke: rgb(161, 201, 244);" stroke-width="14.854234150856085"></path><path d="M482.40000000000003,204.65525219805633C558.8000000000001,204.65525219805633,558.8000000000001,262.697825080981,635.2,262.697825080981" style="stroke: rgb(161, 201, 244);" stroke-width="8.329477093937992"></path><path d="M482.40000000000003,173.21147616844038C558.8000000000001,173.21147616844038,558.8000000000001,79.6298010180471,635.2,79.6298010180471" style="stroke: rgb(161, 201, 244);" stroke-width="0.6941230911614993"></path><path d="M482.40000000000003,210.83294770939366C558.8000000000001,210.83294770939366,558.8000000000001,310.8051827857475,635.2,310.8051827857475" style="stroke: rgb(161, 201, 244);" stroke-width="4.025913928736696"></path><path d="M482.40000000000003,181.19389171679765C558.8000000000001,181.19389171679765,558.8000000000001,144.4053678852382,635.2,144.4053678852382" style="stroke: rgb(161, 201, 244);" stroke-width="2.4988431281813974"></path><path d="M482.40000000000003,184.0397963905598C558.8000000000001,184.0397963905598,558.8000000000001,162.24895881536315,635.2,162.24895881536315" style="stroke: rgb(161, 201, 244);" stroke-width="3.192966219342897"></path><path d="M482.40000000000003,172.6561776955112C558.8000000000001,172.6561776955112,558.8000000000001,60.46737621471524,635.2,60.46737621471524" style="stroke: rgb(161, 201, 244);" stroke-width="0.41647385469689957"></path><path d="M482.40000000000003,176.89032855159633C558.8000000000001,176.89032855159633,558.8000000000001,123.57704766311879,635.2,123.57704766311879" style="stroke: rgb(161, 201, 244);" stroke-width="6.108283202221194"></path><path d="M482.40000000000003,173.69736233225342C558.8000000000001,173.69736233225342,558.8000000000001,94.69689958352605,635.2,94.69689958352605" style="stroke: rgb(161, 201, 244);" stroke-width="0.2776492364645997"></path><path d="M482.40000000000003,154.88662656177684C558.8000000000001,154.88662656177684,558.8000000000001,0.6247107820452357,635.2,0.6247107820452357" style="stroke: rgb(161, 201, 244);" stroke-width="0.13882461823229986"></path><path d="M482.40000000000003,298.861638130495C558.8000000000001,298.861638130495,558.8000000000001,47.135585377140124,635.2,47.135585377140124" style="stroke: rgb(255, 254, 163);" stroke-width="0.6941230911614993"></path><path d="M482.40000000000003,326.0712633040258C558.8000000000001,326.0712633040258,558.8000000000001,336.0712633040261,635.2,336.0712633040261" style="stroke: rgb(255, 254, 163);" stroke-width="23.461360481258676"></path><path d="M482.40000000000003,299.48634891254034C558.8000000000001,299.48634891254034,558.8000000000001,62.341508560851274,635.2,62.341508560851274" style="stroke: rgb(255, 254, 163);" stroke-width="0.5552984729291994"></path><path d="M482.40000000000003,307.1911152244331C558.8000000000001,307.1911152244331,558.8000000000001,232.63766774641354,635.2,232.63766774641354" style="stroke: rgb(255, 254, 163);" stroke-width="3.7482646922720964"></path><path d="M482.40000000000003,302.0546043498379C558.8000000000001,302.0546043498379,558.8000000000001,130.58769088384994,635.2,130.58769088384994" style="stroke: rgb(255, 254, 163);" stroke-width="2.082369273484498"></path><path d="M482.40000000000003,311.7029153169828C558.8000000000001,311.7029153169828,558.8000000000001,290.7403979639056,635.2,290.7403979639056" style="stroke: rgb(255, 254, 163);" stroke-width="5.275335492827395"></path><path d="M482.40000000000003,300.3887089310503C558.8000000000001,300.3887089310503,558.8000000000001,83.65571494678382,635.2,83.65571494678382" style="stroke: rgb(255, 254, 163);" stroke-width="1.2494215640906987"></path><path d="M482.40000000000003,304.27579824155475C558.8000000000001,304.27579824155475,558.8000000000001,166.13604812586757,635.2,166.13604812586757" style="stroke: rgb(255, 254, 163);" stroke-width="2.082369273484498"></path><path d="M482.40000000000003,303.16520129569636C558.8000000000001,303.16520129569636,558.8000000000001,147.11244794076805,635.2,147.11244794076805" style="stroke: rgb(255, 254, 163);" stroke-width="0.13882461823229986"></path><path d="M482.40000000000003,298.4451642757981C558.8000000000001,298.4451642757981,558.8000000000001,0.9023600185098354,635.2,0.9023600185098354" style="stroke: rgb(255, 254, 163);" stroke-width="0.13882461823229986"></path><path d="M482.40000000000003,38.04720037019882C558.8000000000001,38.04720037019882,558.8000000000001,157.45950948634882,635.2,157.45950948634882" style="stroke: rgb(105, 181, 191);" stroke-width="0.5552984729291994"></path><path d="M482.40000000000003,26.45534474780179C558.8000000000001,26.45534474780179,558.8000000000001,15.622397038408058,635.2,15.622397038408058" style="stroke: rgb(105, 181, 191);" stroke-width="9.30124942156409"></path><path d="M482.40000000000003,41.17075428042558C558.8000000000001,41.17075428042558,558.8000000000001,244.99768625636275,635.2,244.99768625636275" style="stroke: rgb(105, 181, 191);" stroke-width="0.6941230911614993"></path><path d="M482.40000000000003,36.72836649699198C558.8000000000001,36.72836649699198,558.8000000000001,106.15455807496514,635.2,106.15455807496514" style="stroke: rgb(105, 181, 191);" stroke-width="2.082369273484498"></path><path d="M482.40000000000003,41.86487737158708C558.8000000000001,41.86487737158708,558.8000000000001,303.8639518741325,635.2,303.8639518741325" style="stroke: rgb(105, 181, 191);" stroke-width="0.6941230911614993"></path><path d="M482.40000000000003,33.81304951411368C558.8000000000001,33.81304951411368,558.8000000000001,74.9097639981489,635.2,74.9097639981489" style="stroke: rgb(105, 181, 191);" stroke-width="3.7482646922720964"></path><path d="M482.40000000000003,39.57427117075412C558.8000000000001,39.57427117075412,558.8000000000001,178.98195279962968,635.2,178.98195279962968" style="stroke: rgb(105, 181, 191);" stroke-width="2.4988431281813974"></path><path d="M482.40000000000003,21.735307727903592C558.8000000000001,21.735307727903592,558.8000000000001,0.2082369273483361,635.2,0.2082369273483361" style="stroke: rgb(105, 181, 191);" stroke-width="0.13882461823229986"></path><path d="M482.40000000000003,31.522443313280732C558.8000000000001,31.522443313280732,558.8000000000001,57.899120777417686,635.2,57.899120777417686" style="stroke: rgb(105, 181, 191);" stroke-width="0.8329477093937991"></path><path d="M482.40000000000003,11.59648310967136C558.8000000000001,11.59648310967136,558.8000000000001,303.4474780194356,635.2,303.4474780194356" style="stroke: rgb(250, 176, 228);" stroke-width="0.13882461823229986"></path><path d="M482.40000000000003,10.90236001850986C558.8000000000001,10.90236001850986,558.8000000000001,72.8273947246644,635.2,72.8273947246644" style="stroke: rgb(250, 176, 228);" stroke-width="0.41647385469689957"></path><path d="M482.40000000000003,10.624710782045259C558.8000000000001,10.624710782045259,558.8000000000001,0.06941230911603624,635.2,0.06941230911603624" style="stroke: rgb(250, 176, 228);" stroke-width="0.13882461823229986"></path><path d="M482.40000000000003,11.31883387320676C558.8000000000001,11.31883387320676,558.8000000000001,177.52429430819052,635.2,177.52429430819052" style="stroke: rgb(250, 176, 228);" stroke-width="0.41647385469689957"></path><path d="M482.40000000000003,56.02961591855598C558.8000000000001,56.02961591855598,558.8000000000001,304.9745488199909,635.2,304.9745488199909" style="stroke: rgb(255, 180, 130);" stroke-width="1.5270708005552984"></path><path d="M482.40000000000003,55.12725590004604C558.8000000000001,55.12725590004604,558.8000000000001,245.4835724201758,635.2,245.4835724201758" style="stroke: rgb(255, 180, 130);" stroke-width="0.2776492364645997"></path><path d="M482.40000000000003,54.08607126330379C558.8000000000001,54.08607126330379,558.8000000000001,157.94539565016186,635.2,157.94539565016186" style="stroke: rgb(255, 180, 130);" stroke-width="0.41647385469689957"></path><path d="M482.40000000000003,53.60018509949074C558.8000000000001,53.60018509949074,558.8000000000001,141.90652475705681,635.2,141.90652475705681" style="stroke: rgb(255, 180, 130);" stroke-width="0.5552984729291994"></path><path d="M482.40000000000003,54.64136973623299C558.8000000000001,54.64136973623299,558.8000000000001,180.5784359093011,635.2,180.5784359093011" style="stroke: rgb(255, 180, 130);" stroke-width="0.6941230911614993"></path><path d="M482.40000000000003,52.975474317445396C558.8000000000001,52.975474317445396,558.8000000000001,76.8533086534011,635.2,76.8533086534011" style="stroke: rgb(255, 180, 130);" stroke-width="0.13882461823229986"></path><path d="M482.40000000000003,52.48958815363234C558.8000000000001,52.48958815363234,558.8000000000001,20.550670985654705,635.2,20.550670985654705" style="stroke: rgb(255, 180, 130);" stroke-width="0.5552984729291994"></path><path d="M482.40000000000003,52.8366496992131C558.8000000000001,52.8366496992131,558.8000000000001,58.38500694123074,635.2,58.38500694123074" style="stroke: rgb(255, 180, 130);" stroke-width="0.13882461823229986"></path><path d="M482.40000000000003,53.18371124479384C558.8000000000001,53.18371124479384,558.8000000000001,107.3345673299397,635.2,107.3345673299397" style="stroke: rgb(255, 180, 130);" stroke-width="0.2776492364645997"></path><path d="M482.40000000000003,0.48588616381299266C558.8000000000001,0.48588616381299266,558.8000000000001,244.58121240166588,635.2,244.58121240166588" style="stroke: rgb(185, 242, 240);" stroke-width="0.13882461823229986"></path><path d="M482.40000000000003,0.138824618232243C558.8000000000001,0.138824618232243,558.8000000000001,104.9745488199906,635.2,104.9745488199906" style="stroke: rgb(185, 242, 240);" stroke-width="0.2776492364645997"></path><path d="M482.40000000000003,0.3470615455806928C558.8000000000001,0.3470615455806928,558.8000000000001,177.24664507172594,635.2,177.24664507172594" style="stroke: rgb(185, 242, 240);" stroke-width="0.13882461823229986"></path><path d="M641.2,351.6890328551598C717.6,351.6890328551598,717.6,346.6890328551595,794,346.6890328551595" style="stroke: rgb(207, 207, 207);" stroke-width="96.6219342896807"></path><path d="M641.2,183.49375289217943C717.6,183.49375289217943,717.6,111.70985654789455,794,111.70985654789455" style="stroke: rgb(141, 229, 161);" stroke-width="3.192966219342897"></path><path d="M641.2,180.85608514576575C717.6,180.85608514576575,717.6,83.1073577047663,794,83.1073577047663" style="stroke: rgb(141, 229, 161);" stroke-width="2.082369273484498"></path><path d="M641.2,211.60573808422018C717.6,211.60573808422018,717.6,213.96807033780658,794,213.96807033780658" style="stroke: rgb(141, 229, 161);" stroke-width="30.54141601110597"></path><path d="M641.2,230.6941230911614C717.6,230.6941230911614,717.6,266.37899120777405,794,266.37899120777405" style="stroke: rgb(141, 229, 161);" stroke-width="7.635354002776492"></path><path d="M641.2,191.614993058769C717.6,191.614993058769,717.6,161.0712633040259,794,161.0712633040259" style="stroke: rgb(141, 229, 161);" stroke-width="9.44007403979639"></path><path d="M641.2,185.99259602036082C717.6,185.99259602036082,717.6,130.733456732994,794,130.733456732994" style="stroke: rgb(141, 229, 161);" stroke-width="1.8047200370198981"></path><path d="M641.2,179.12077741786197C717.6,179.12077741786197,717.6,66.51318833873216,794,66.51318833873216" style="stroke: rgb(141, 229, 161);" stroke-width="1.3882461823229986"></path><path d="M641.2,177.38546968995823C717.6,177.38546968995823,717.6,19.372975474317577,794,19.372975474317577" style="stroke: rgb(141, 229, 161);" stroke-width="0.41647385469689957"></path><path d="M641.2,178.01018047200358C717.6,178.01018047200358,717.6,34.57889865802872,794,34.57889865802872" style="stroke: rgb(141, 229, 161);" stroke-width="0.8329477093937991"></path><path d="M641.2,260.823692734845C717.6,260.823692734845,717.6,233.61175381767703,794,233.61175381767703" style="stroke: rgb(255, 254, 163);" stroke-width="8.74595094863489"></path><path d="M641.2,279.2873669597409C717.6,279.2873669597409,717.6,284.2873669597407,794,284.2873669597407" style="stroke: rgb(255, 254, 163);" stroke-width="28.18139750115687"></path><path d="M641.2,251.93891716797776C717.6,251.93891716797776,717.6,133.9264229523369,794,133.9264229523369" style="stroke: rgb(255, 254, 163);" stroke-width="4.581212401665895"></path><path d="M641.2,246.5941693660342C717.6,246.5941693660342,717.6,67.62378528459057,794,67.62378528459057" style="stroke: rgb(255, 254, 163);" stroke-width="0.8329477093937991"></path><path d="M641.2,245.69180934752427C717.6,245.69180934752427,717.6,35.48125867653867,794,35.48125867653867" style="stroke: rgb(255, 254, 163);" stroke-width="0.971772327626099"></path><path d="M641.2,248.5377140212864C717.6,248.5377140212864,717.6,114.41693660342439,794,114.41693660342439" style="stroke: rgb(255, 254, 163);" stroke-width="2.2211938917167977"></path><path d="M641.2,244.92827394724662C717.6,244.92827394724662,717.6,19.85886163813063,794,19.85886163813063" style="stroke: rgb(255, 254, 163);" stroke-width="0.5552984729291994"></path><path d="M641.2,247.21888014807956C717.6,247.21888014807956,717.6,84.35677926885701,794,84.35677926885701" style="stroke: rgb(255, 254, 163);" stroke-width="0.41647385469689957"></path><path d="M641.2,244.58121240166588C717.6,244.58121240166588,717.6,6.041184636742335,794,6.041184636742335" style="stroke: rgb(255, 254, 163);" stroke-width="0.13882461823229986"></path><path d="M641.2,255.34012031466912C717.6,255.34012031466912,717.6,166.9018972697825,794,166.9018972697825" style="stroke: rgb(255, 254, 163);" stroke-width="2.2211938917167977"></path><path d="M641.2,157.52892179546495C717.6,157.52892179546495,717.6,18.956501619620678,794,18.956501619620678" style="stroke: rgb(255, 159, 155);" stroke-width="0.41647385469689957"></path><path d="M641.2,161.4854234150855C717.6,161.4854234150855,717.6,197.58676538639517,794,197.58676538639517" style="stroke: rgb(255, 159, 155);" stroke-width="2.2211938917167977"></path><path d="M641.2,158.01480795927802C717.6,158.01480795927802,717.6,65.54141601110607,794,65.54141601110607" style="stroke: rgb(255, 159, 155);" stroke-width="0.5552984729291994"></path><path d="M641.2,158.4312818139749C717.6,158.4312818139749,717.6,81.92734844979177,794,81.92734844979177" style="stroke: rgb(255, 159, 155);" stroke-width="0.2776492364645997"></path><path d="M641.2,164.88662656177686C717.6,164.88662656177686,717.6,260.2707080055529,794,260.2707080055529" style="stroke: rgb(255, 159, 155);" stroke-width="4.581212401665895"></path><path d="M641.2,159.9583526145302C717.6,159.9583526145302,717.6,129.41462285978716,794,129.41462285978716" style="stroke: rgb(255, 159, 155);" stroke-width="0.8329477093937991"></path><path d="M641.2,159.05599259602027C717.6,159.05599259602027,717.6,109.62748727441004,794,109.62748727441004" style="stroke: rgb(255, 159, 155);" stroke-width="0.971772327626099"></path><path d="M641.2,157.25127255900037C717.6,157.25127255900037,717.6,5.902360018510035,794,5.902360018510035" style="stroke: rgb(255, 159, 155);" stroke-width="0.13882461823229986"></path><path d="M641.2,42.415548357241946C717.6,42.415548357241946,717.6,180.99722350763534,794,180.99722350763534" style="stroke: rgb(208, 187, 255);" stroke-width="5.414160111059695"></path><path d="M641.2,38.528459046737545C717.6,38.528459046737545,717.6,147.39703840814437,794,147.39703840814437" style="stroke: rgb(208, 187, 255);" stroke-width="2.3600185099490973"></path><path d="M641.2,46.30263766774634C717.6,46.30263766774634,717.6,249.30356316520118,794,249.30356316520118" style="stroke: rgb(208, 187, 255);" stroke-width="2.3600185099490973"></path><path d="M641.2,23.6048125867653C717.6,23.6048125867653,717.6,54.57427117075437,794,54.57427117075437" style="stroke: rgb(208, 187, 255);" stroke-width="17.214252660805183"></path><path d="M641.2,12.221193891716712C717.6,12.221193891716712,717.6,16.527070800555432,794,16.527070800555432" style="stroke: rgb(208, 187, 255);" stroke-width="0.8329477093937991"></path><path d="M641.2,35.19666820916234C717.6,35.19666820916234,717.6,96.30032392410926,794,96.30032392410926" style="stroke: rgb(208, 187, 255);" stroke-width="3.192966219342897"></path><path d="M641.2,32.90606200832939C717.6,32.90606200832939,717.6,79.01203146691347,794,79.01203146691347" style="stroke: rgb(208, 187, 255);" stroke-width="1.3882461823229986"></path><path d="M641.2,13.81767700138816C717.6,13.81767700138816,717.6,31.316520129569682,794,31.316520129569682" style="stroke: rgb(208, 187, 255);" stroke-width="2.3600185099490973"></path><path d="M641.2,37.07080055529839C717.6,37.07080055529839,717.6,125.94400740397967,794,125.94400740397967" style="stroke: rgb(208, 187, 255);" stroke-width="0.5552984729291994"></path><path d="M641.2,11.388246182322913C717.6,11.388246182322913,717.6,5.416473854696985,794,5.416473854696985" style="stroke: rgb(208, 187, 255);" stroke-width="0.8329477093937991"></path><path d="M641.2,146.14067561314195C717.6,146.14067561314195,717.6,256.93891716797765,794,256.93891716797765" style="stroke: rgb(255, 180, 130);" stroke-width="2.082369273484498"></path><path d="M641.2,143.98889403054127C717.6,143.98889403054127,717.6,195.36557149467836,794,195.36557149467836" style="stroke: rgb(255, 180, 130);" stroke-width="2.2211938917167977"></path><path d="M641.2,141.97593706617295C717.6,141.97593706617295,717.6,65.19435446552531,794,65.19435446552531" style="stroke: rgb(255, 180, 130);" stroke-width="0.13882461823229986"></path><path d="M641.2,142.18417399352137C717.6,142.18417399352137,717.6,81.64969921332717,794,81.64969921332717" style="stroke: rgb(255, 180, 130);" stroke-width="0.2776492364645997"></path><path d="M641.2,141.83711244794065C717.6,141.83711244794065,717.6,34.09301249421568,794,34.09301249421568" style="stroke: rgb(255, 180, 130);" stroke-width="0.13882461823229986"></path><path d="M641.2,142.39241092086985C717.6,142.39241092086985,717.6,128.92873669597412,794,128.92873669597412" style="stroke: rgb(255, 180, 130);" stroke-width="0.13882461823229986"></path><path d="M641.2,142.67006015733443C717.6,142.67006015733443,717.6,156.14298935677925,794,156.14298935677925" style="stroke: rgb(255, 180, 130);" stroke-width="0.41647385469689957"></path><path d="M641.2,141.69828782970836C717.6,141.69828782970836,717.6,18.67885238315608,794,18.67885238315608" style="stroke: rgb(255, 180, 130);" stroke-width="0.13882461823229986"></path><path d="M641.2,130.7265155020822C717.6,130.7265155020822,717.6,254.99537251272545,794,254.99537251272545" style="stroke: rgb(222, 187, 155);" stroke-width="1.8047200370198981"></path><path d="M641.2,116.14993058769073C717.6,116.14993058769073,717.6,127.95696436834803,794,127.95696436834803" style="stroke: rgb(222, 187, 155);" stroke-width="1.8047200370198981"></path><path d="M641.2,126.42295233688093C717.6,126.42295233688093,717.6,190.85377140212864,794,190.85377140212864" style="stroke: rgb(222, 187, 155);" stroke-width="6.802406293382693"></path><path d="M641.2,105.32161036557135C717.6,105.32161036557135,717.6,18.12355391022688,794,18.12355391022688" style="stroke: rgb(222, 187, 155);" stroke-width="0.971772327626099"></path><path d="M641.2,112.12401665895403C717.6,112.12401665895403,717.6,106.01804720037025,794,106.01804720037025" style="stroke: rgb(222, 187, 155);" stroke-width="6.247107820453493"></path><path d="M641.2,107.473391948172C717.6,107.473391948172,717.6,64.43081906524766,794,64.43081906524766" style="stroke: rgb(222, 187, 155);" stroke-width="1.3882461823229986"></path><path d="M641.2,106.29338269319744C717.6,106.29338269319744,717.6,33.537714021286476,794,33.537714021286476" style="stroke: rgb(222, 187, 155);" stroke-width="0.971772327626099"></path><path d="M641.2,108.5839888940304C717.6,108.5839888940304,717.6,81.09440074039797,794,81.09440074039797" style="stroke: rgb(222, 187, 155);" stroke-width="0.8329477093937991"></path><path d="M641.2,120.03701989819513C717.6,120.03701989819513,717.6,152.95002313743638,794,152.95002313743638" style="stroke: rgb(222, 187, 155);" stroke-width="5.969458583988894"></path><path d="M641.2,75.67329939842655C717.6,75.67329939842655,717.6,100.9509486348913,794,100.9509486348913" style="stroke: rgb(161, 201, 244);" stroke-width="3.6094400740397963"></path><path d="M641.2,77.75566867191104C717.6,77.75566867191104,717.6,126.63813049514117,794,126.63813049514117" style="stroke: rgb(161, 201, 244);" stroke-width="0.5552984729291994"></path><path d="M641.2,83.37806571031919C717.6,83.37806571031919,717.6,253.05182785747326,794,253.05182785747326" style="stroke: rgb(161, 201, 244);" stroke-width="1.8047200370198981"></path><path d="M641.2,72.75798241554826C717.6,72.75798241554826,717.6,32.91300323924113,794,32.91300323924113" style="stroke: rgb(161, 201, 244);" stroke-width="0.2776492364645997"></path><path d="M641.2,80.80981027302164C717.6,80.80981027302164,717.6,185.64784821841738,794,185.64784821841738" style="stroke: rgb(161, 201, 244);" stroke-width="3.3317908375751966"></path><path d="M641.2,73.03563165201285C717.6,73.03563165201285,717.6,63.59787135585386,794,63.59787135585386" style="stroke: rgb(161, 201, 244);" stroke-width="0.2776492364645997"></path><path d="M641.2,78.58861638130483C717.6,78.58861638130483,717.6,149.40999537251272,794,149.40999537251272" style="stroke: rgb(161, 201, 244);" stroke-width="1.1105969458583989"></path><path d="M641.2,73.52151781582589C717.6,73.52151781582589,717.6,80.33086534012031,794,80.33086534012031" style="stroke: rgb(161, 201, 244);" stroke-width="0.6941230911614993"></path><path d="M641.2,61.78621008792207C717.6,61.78621008792207,717.6,251.31652012956954,794,251.31652012956954" style="stroke: rgb(105, 181, 191);" stroke-width="1.6658954187875983"></path><path d="M641.2,59.63442850532143C717.6,59.63442850532143,717.6,98.52151781582606,794,98.52151781582606" style="stroke: rgb(105, 181, 191);" stroke-width="1.2494215640906987"></path><path d="M641.2,57.82970846830154C717.6,57.82970846830154,717.6,17.290606200833082,794,17.290606200833082" style="stroke: rgb(105, 181, 191);" stroke-width="0.6941230911614993"></path><path d="M641.2,58.31559463211459C717.6,58.31559463211459,717.6,32.63535400277653,794,32.63535400277653" style="stroke: rgb(105, 181, 191);" stroke-width="0.2776492364645997"></path><path d="M641.2,60.814437760295974C717.6,60.814437760295974,717.6,183.84312818139747,794,183.84312818139747" style="stroke: rgb(105, 181, 191);" stroke-width="0.2776492364645997"></path><path d="M641.2,58.59324386857919C717.6,58.59324386857919,717.6,63.320222119389264,794,63.320222119389264" style="stroke: rgb(105, 181, 191);" stroke-width="0.2776492364645997"></path><path d="M641.2,60.536788523831376C717.6,60.536788523831376,717.6,148.7158722813512,794,148.7158722813512" style="stroke: rgb(105, 181, 191);" stroke-width="0.2776492364645997"></path><path d="M641.2,58.870893105043784C717.6,58.870893105043784,717.6,79.84497917630728,794,79.84497917630728" style="stroke: rgb(105, 181, 191);" stroke-width="0.2776492364645997"></path><path d="M641.2,60.32855159648293C717.6,60.32855159648293,717.6,126.29106894956041,794,126.29106894956041" style="stroke: rgb(105, 181, 191);" stroke-width="0.13882461823229986"></path><path d="M641.2,0.4858861638129358C717.6,0.4858861638129358,717.6,125.59694585839891,794,125.59694585839891" style="stroke: rgb(250, 176, 228);" stroke-width="0.13882461823229986"></path><path d="M641.2,0.34706154558063596C717.6,0.34706154558063596,717.6,94.63442850532165,794,94.63442850532165" style="stroke: rgb(250, 176, 228);" stroke-width="0.13882461823229986"></path><path d="M641.2,0.9023600185098354C717.6,0.9023600185098354,717.6,248.0541416011105,794,248.0541416011105" style="stroke: rgb(250, 176, 228);" stroke-width="0.13882461823229986"></path><path d="M641.2,0.6941230911613856C717.6,0.6941230911613856,717.6,178.15131883387318,794,178.15131883387318" style="stroke: rgb(250, 176, 228);" stroke-width="0.2776492364645997"></path><path d="M641.2,0.13882461823218617C717.6,0.13882461823218617,717.6,78.17908375751968,794,78.17908375751968" style="stroke: rgb(250, 176, 228);" stroke-width="0.2776492364645997"></path><path d="M641.2,94.34983803794528C717.6,94.34983803794528,717.6,102.82508098102734,794,102.82508098102734" style="stroke: rgb(185, 242, 240);" stroke-width="0.13882461823229986"></path><path d="M641.2,94.48866265617758C717.6,94.48866265617758,717.6,126.98519204072191,794,126.98519204072191" style="stroke: rgb(185, 242, 240);" stroke-width="0.13882461823229986"></path><path d="M641.2,94.62748727440989C717.6,94.62748727440989,717.6,187.38315594632115,794,187.38315594632115" style="stroke: rgb(185, 242, 240);" stroke-width="0.13882461823229986"></path><path d="M641.2,94.7663118926422C717.6,94.7663118926422,717.6,254.02360018509938,794,254.02360018509938" style="stroke: rgb(185, 242, 240);" stroke-width="0.13882461823229986"></path></g><g class="nodes" font-family="Arial, Helvetica" font-size="10"><g><rect x="0" y="119.00740397963904" height="32.48496066635818" width="6" fill="#000"></rect><text x="12" y="135.24988431281812" dy="0.35em" text-anchor="start">Amp</text></g><g><rect x="0" y="29.303563165201354" height="2.9153169828782666" width="6" fill="#000"></rect><text x="12" y="30.761221656640487" dy="0.35em" text-anchor="start">Combination Fx</text></g><g><rect x="0" y="5" height="1.9435446552522535" width="6" fill="#000"></rect><text x="12" y="5.971772327626127" dy="0.35em" text-anchor="start">Delay</text></g><g><rect x="0" y="216.47154095326238" height="178.52845904673762" width="6" fill="#000"></rect><text x="12" y="305.73577047663116" dy="0.35em" text-anchor="start">Dynamics</text></g><g><rect x="0" y="53.74595094863491" height="9.856547894493247" width="6" fill="#000"></rect><text x="12" y="58.67422489588154" dy="0.35em" text-anchor="start">Filter_EQ</text></g><g><rect x="0" y="73.60249884312816" height="13.465987968533113" width="6" fill="#000"></rect><text x="12" y="80.33549282739472" dy="0.35em" text-anchor="start">Modulation</text></g><g><rect x="0" y="97.06848681166127" height="11.938917167977763" width="6" fill="#000"></rect><text x="12" y="103.03794539565015" dy="0.35em" text-anchor="start">Pedal Fx</text></g><g><rect x="0" y="16.943544655252254" height="2.3600185099491" width="6" fill="#000"></rect><text x="12" y="18.123553910226804" dy="0.35em" text-anchor="start">Reverb</text></g><g><rect x="0" y="42.21888014807962" height="1.5270708005552933" width="6" fill="#000"></rect><text x="12" y="42.98241554835727" dy="0.35em" text-anchor="start">SFX</text></g><g><rect x="0" y="161.4923646459972" height="44.97917630726516" width="6" fill="#000"></rect><text x="12" y="183.9819527996298" dy="0.35em" text-anchor="start">Stomp</text></g><g><rect x="158.8" y="151.21008792225823" height="64.41462285978707" width="6" fill="#000"></rect><text x="152.8" y="183.41739935215176" dy="0.35em" text-anchor="end">Amp</text></g><g><rect x="158.8" y="5.000000000000142" height="5.1365108745950465" width="6" fill="#000"></rect><text x="152.8" y="7.568255437297665" dy="0.35em" text-anchor="end">Combination Fx</text></g><g><rect x="158.8" y="20.13651087459519" height="9.71772327626104" width="6" fill="#000"></rect><text x="152.8" y="24.99537251272571" dy="0.35em" text-anchor="end">Delay</text></g><g><rect x="158.8" y="250.20129569643686" height="68.02406293382683" width="6" fill="#000"></rect><text x="152.8" y="284.2133271633503" dy="0.35em" text-anchor="end">Dynamics</text></g><g><rect x="158.8" y="104.14391485423417" height="37.06617306802406" width="6" fill="#000"></rect><text x="152.8" y="122.6770013882462" dy="0.35em" text-anchor="end">Filter_EQ</text></g><g><rect x="158.8" y="55.268394261915915" height="26.931975937066113" width="6" fill="#000"></rect><text x="152.8" y="68.73438223044897" dy="0.35em" text-anchor="end">Modulation</text></g><g><rect x="158.8" y="225.6247107820453" height="14.57658491439156" width="6" fill="#000"></rect><text x="152.8" y="232.91300323924108" dy="0.35em" text-anchor="end">Pedal Fx</text></g><g><rect x="158.8" y="39.85423415085623" height="5.414160111059687" width="6" fill="#000"></rect><text x="152.8" y="42.56131420638607" dy="0.35em" text-anchor="end">Reverb</text></g><g><rect x="158.8" y="92.20037019898203" height="1.9435446552521398" width="6" fill="#000"></rect><text x="152.8" y="93.1721425266081" dy="0.35em" text-anchor="end">SFX</text></g><g><rect x="158.8" y="328.2253586302637" height="66.77464136973616" width="6" fill="#000"></rect><text x="152.8" y="361.6126793151318" dy="0.35em" text-anchor="end">Stomp</text></g><g><rect x="317.6" y="332.6677464136973" height="62.332253586302585" width="6" fill="#000"></rect><text x="311.6" y="363.8338732068486" dy="0.35em" text-anchor="end">Amp</text></g><g><rect x="317.6" y="15.971772327626269" height="6.5247570569181335" width="6" fill="#000"></rect><text x="311.6" y="19.234150856085336" dy="0.35em" text-anchor="end">Combination Fx</text></g><g><rect x="317.6" y="47.2165664044426" height="22.628412771864873" width="6" fill="#000"></rect><text x="311.6" y="58.53077279037504" dy="0.35em" text-anchor="end">Delay</text></g><g><rect x="317.6" y="232.1494678389636" height="53.308653401202974" width="6" fill="#000"></rect><text x="311.6" y="258.8037945395651" dy="0.35em" text-anchor="end">Dynamics</text></g><g><rect x="317.6" y="138.29477093938007" height="36.51087459509489" width="6" fill="#000"></rect><text x="311.6" y="156.55020823692752" dy="0.35em" text-anchor="end">Filter_EQ</text></g><g><rect x="317.6" y="184.80564553447496" height="37.34382230448864" width="6" fill="#000"></rect><text x="311.6" y="203.47755668671928" dy="0.35em" text-anchor="end">Modulation</text></g><g><rect x="317.6" y="32.4965293845444" height="4.7200370198982" width="6" fill="#000"></rect><text x="311.6" y="34.8565478944935" dy="0.35em" text-anchor="end">Pedal Fx</text></g><g><rect x="317.6" y="295.4581212401666" height="27.209625173530696" width="6" fill="#000"></rect><text x="311.6" y="309.06293382693195" dy="0.35em" text-anchor="end">Reverb</text></g><g><rect x="317.6" y="5.000000000000142" height="0.9717723276261268" width="6" fill="#000"></rect><text x="311.6" y="5.4858861638132055" dy="0.35em" text-anchor="end">SFX</text></g><g><rect x="317.6" y="79.84497917630748" height="48.4497917630726" width="6" fill="#000"></rect><text x="311.6" y="104.06987505784377" dy="0.35em" text-anchor="end">Stomp</text></g><g><rect x="476.40000000000003" y="154.81721425266068" height="58.02869042110149" width="6" fill="#000"></rect><text x="470.40000000000003" y="183.83155946321142" dy="0.35em" text-anchor="end">Amp</text></g><g><rect x="476.40000000000003" y="52.21193891716774" height="4.58121240166588" width="6" fill="#000"></rect><text x="470.40000000000003" y="54.50254511800068" dy="0.35em" text-anchor="end">Combination Fx</text></g><g><rect x="476.40000000000003" y="252.55900046274877" height="35.81675150393315" width="6" fill="#000"></rect><text x="470.40000000000003" y="270.46737621471533" dy="0.35em" text-anchor="end">Delay</text></g><g><rect x="476.40000000000003" y="222.84590467376216" height="19.713095788986607" width="6" fill="#000"></rect><text x="470.40000000000003" y="232.70245256825547" dy="0.35em" text-anchor="end">Dynamics</text></g><g><rect x="476.40000000000003" y="66.79315131883362" height="32.48496066635823" width="6" fill="#000"></rect><text x="470.40000000000003" y="83.03563165201274" dy="0.35em" text-anchor="end">Filter_EQ</text></g><g><rect x="476.40000000000003" y="109.27811198519186" height="35.53910226746882" width="6" fill="#000"></rect><text x="470.40000000000003" y="127.04766311892627" dy="0.35em" text-anchor="end">Modulation</text></g><g><rect x="476.40000000000003" y="347.8019435446554" height="52.19805645534473" width="6" fill="#000"></rect><text x="470.40000000000003" y="373.90097177232775" dy="0.35em" text-anchor="end">None</text></g><g><rect x="476.40000000000003" y="10.55529847292911" height="1.1105969458583331" width="6" fill="#000"></rect><text x="470.40000000000003" y="11.110596945858276" dy="0.35em" text-anchor="end">Pedal Fx</text></g><g><rect x="476.40000000000003" y="298.37575196668195" height="39.42619157797344" width="6" fill="#000"></rect><text x="470.40000000000003" y="318.08884775566867" dy="0.35em" text-anchor="end">Reverb</text></g><g><rect x="476.40000000000003" y="-5.684341886080802e-14" height="0.5552984729291666" width="6" fill="#000"></rect><text x="470.40000000000003" y="0.27764923646452644" dy="0.35em" text-anchor="end">SFX</text></g><g><rect x="476.40000000000003" y="21.665895418787443" height="20.5460434983803" width="6" fill="#000"></rect><text x="470.40000000000003" y="31.938917167977593" dy="0.35em" text-anchor="end">Stomp</text></g><g><rect x="635.2" y="72.61915779731595" height="11.66126793151318" width="6" fill="#000"></rect><text x="629.2" y="78.44979176307254" dy="0.35em" text-anchor="end">Amp</text></g><g><rect x="635.2" y="141.6288755205922" height="5.552984729292007" width="6" fill="#000"></rect><text x="629.2" y="144.4053678852382" dy="0.35em" text-anchor="end">Combination Fx</text></g><g><rect x="635.2" y="177.17723276260978" height="57.334567329939944" width="6" fill="#000"></rect><text x="629.2" y="205.84451642757975" dy="0.35em" text-anchor="end">Delay</text></g><g><rect x="635.2" y="157.1818602498842" height="9.995372512725567" width="6" fill="#000"></rect><text x="629.2" y="162.179546506247" dy="0.35em" text-anchor="end">Dynamics</text></g><g><rect x="635.2" y="10.971772327626013" height="36.510874595094776" width="6" fill="#000"></rect><text x="629.2" y="29.2272096251734" dy="0.35em" text-anchor="end">Filter_EQ</text></g><g><rect x="635.2" y="104.8357242017583" height="26.793151318833907" width="6" fill="#000"></rect><text x="629.2" y="118.23229986117525" dy="0.35em" text-anchor="end">Modulation</text></g><g><rect x="635.2" y="303.37806571031945" height="96.62193428968068" width="6" fill="#000"></rect><text x="629.2" y="351.6890328551598" dy="0.35em" text-anchor="end">None</text></g><g><rect x="635.2" y="-1.1368683772161603e-13" height="0.9717723276261268" width="6" fill="#000"></rect><text x="629.2" y="0.4858861638129497" dy="0.35em" text-anchor="end">Pedal Fx</text></g><g><rect x="635.2" y="244.51180009254972" height="48.86626561776973" width="6" fill="#000"></rect><text x="629.2" y="268.9449329014346" dy="0.35em" text-anchor="end">Reverb</text></g><g><rect x="635.2" y="94.28042572882913" height="0.5552984729291666" width="6" fill="#000"></rect><text x="629.2" y="94.55807496529371" dy="0.35em" text-anchor="end">SFX</text></g><g><rect x="635.2" y="57.48264692272079" height="5.13651087459516" width="6" fill="#000"></rect><text x="629.2" y="60.05090236001837" dy="0.35em" text-anchor="end">Stomp</text></g><g><rect x="794" y="16.110596945858532" height="4.0259139287366" width="6" fill="#000"></rect><text x="788" y="18.123553910226832" dy="0.35em" text-anchor="end">Amp</text></g><g><rect x="794" y="78.04025913928737" height="6.5247570569181335" width="6" fill="#000"></rect><text x="788" y="81.30263766774644" dy="0.35em" text-anchor="end">Combination Fx</text></g><g><rect x="794" y="94.5650161962055" height="20.96251735307726" width="6" fill="#000"></rect><text x="788" y="105.04627487274414" dy="0.35em" text-anchor="end">Delay</text></g><g><rect x="794" y="125.52753354928277" height="10.689495603887053" width="6" fill="#000"></rect><text x="788" y="130.8722813512263" dy="0.35em" text-anchor="end">Dynamics</text></g><g><rect x="794" y="30.136510874595132" height="5.830633965756647" width="6" fill="#000"></rect><text x="788" y="33.051827857473455" dy="0.35em" text-anchor="end">Filter_EQ</text></g><g><rect x="794" y="45.96714484035178" height="22.073114298935593" width="6" fill="#000"></rect><text x="788" y="57.003701989819575" dy="0.35em" text-anchor="end">Modulation</text></g><g><rect x="794" y="247.98472929199434" height="147.01527070800557" width="6" fill="#000"></rect><text x="788" y="321.4923646459971" dy="0.35em" text-anchor="end">None</text></g><g><rect x="794" y="5.000000000000085" height="1.1105969458584468" width="6" fill="#000"></rect><text x="788" y="5.555298472929309" dy="0.35em" text-anchor="end">Pedal Fx</text></g><g><rect x="794" y="178.01249421564088" height="59.972235076353456" width="6" fill="#000"></rect><text x="788" y="207.9986117538176" dy="0.35em" text-anchor="end">Reverb</text></g><g><rect x="794" y="146.21702915316982" height="21.795465062471067" width="6" fill="#000"></rect><text x="788" y="157.11476168440535" dy="0.35em" text-anchor="end">Stomp</text></g></g></g></svg>